<?xml version="1.0" encoding="UTF-8" standalone="no"?><!DOCTYPE svg PUBLIC "-//W3C//DTD SVG 1.1//EN" "http://www.w3.org/Graphics/SVG/1.1/DTD/svg11.dtd"><svg width="100%" height="100%" viewBox="0 0 36 243" version="1.1" xmlns="http://www.w3.org/2000/svg" xmlns:xlink="http://www.w3.org/1999/xlink" xml:space="preserve" xmlns:serif="http://www.serif.com/" style="fill-rule:evenodd;clip-rule:evenodd;stroke-linejoin:round;stroke-miterlimit:2;"><g><path d="M0.72,0l34.56,10.56l0,9.744l-34.56,10.56l0,-6.72l30.48,-9.408l0,1.248l-30.48,-9.264l0,-6.72Zm7.2,6.336l6.096,0l0,18.24l-6.096,0l0,-18.24Z" style="fill-opacity:0.33;fill-rule:nonzero;"/><path d="M0.72,32.592l34.56,0l0,11.184c0,0.272 -0.008,0.832 -0.024,1.68c-0.016,0.848 -0.072,1.664 -0.168,2.448c-0.336,2.784 -1.304,5.144 -2.904,7.08c-1.6,1.936 -3.632,3.408 -6.096,4.416c-2.464,1.008 -5.16,1.512 -8.088,1.512c-2.928,0 -5.624,-0.504 -8.088,-1.512c-2.464,-1.008 -4.496,-2.48 -6.096,-4.416c-1.6,-1.936 -2.568,-4.296 -2.904,-7.08c-0.096,-0.784 -0.152,-1.6 -0.168,-2.448c-0.016,-0.848 -0.024,-1.408 -0.024,-1.68l0,-11.184Zm6.144,6.624l0,4.56c0,0.432 0.012,1.016 0.036,1.752c0.024,0.736 0.092,1.4 0.204,1.992c0.304,1.504 1.008,2.732 2.112,3.684c1.104,0.952 2.432,1.656 3.984,2.112c1.552,0.456 3.152,0.684 4.8,0.684c1.728,0 3.368,-0.236 4.92,-0.708c1.552,-0.472 2.864,-1.188 3.936,-2.148c1.072,-0.96 1.752,-2.168 2.04,-3.624c0.128,-0.592 0.2,-1.256 0.216,-1.992c0.016,-0.736 0.024,-1.32 0.024,-1.752l0,-4.56l-22.272,0Z" style="fill-opacity:0.33;fill-rule:nonzero;"/><path d="M0.72,64.08l34.56,0l0,5.856l-22.944,11.424l22.944,11.424l0,5.856l-34.56,0l0,-6.096l20.64,0l-20.64,-10.032l0,-2.304l20.64,-10.032l-20.64,0l0,-6.096Z" style="fill-opacity:0.33;fill-rule:nonzero;"/><path d="M0.72,103.248l34.56,0l0,6.528l-34.56,0l0,-6.528Z" style="fill-opacity:0.33;fill-rule:nonzero;"/><path d="M0.72,122.4l28.464,0l0,-10.896l6.096,0l0,28.32l-6.096,0l0,-10.896l-28.464,0l0,-6.528Z" style="fill-opacity:0.33;fill-rule:nonzero;"/><path d="M0,168.48c0,-3.456 0.752,-6.436 2.256,-8.94c1.504,-2.504 3.608,-4.432 6.312,-5.784c2.704,-1.352 5.848,-2.028 9.432,-2.028c3.584,0 6.728,0.676 9.432,2.028c2.704,1.352 4.808,3.28 6.312,5.784c1.504,2.504 2.256,5.484 2.256,8.94c0,3.456 -0.752,6.436 -2.256,8.94c-1.504,2.504 -3.608,4.432 -6.312,5.784c-2.704,1.352 -5.848,2.028 -9.432,2.028c-3.584,0 -6.728,-0.676 -9.432,-2.028c-2.704,-1.352 -4.808,-3.28 -6.312,-5.784c-1.504,-2.504 -2.256,-5.484 -2.256,-8.94Zm6.144,0c-0.032,2.192 0.44,4.016 1.416,5.472c0.976,1.456 2.36,2.548 4.152,3.276c1.792,0.728 3.888,1.092 6.288,1.092c2.4,0 4.48,-0.364 6.24,-1.092c1.76,-0.728 3.128,-1.82 4.104,-3.276c0.976,-1.456 1.48,-3.28 1.512,-5.472c0.032,-2.192 -0.44,-4.016 -1.416,-5.472c-0.976,-1.456 -2.36,-2.548 -4.152,-3.276c-1.792,-0.728 -3.888,-1.092 -6.288,-1.092c-2.4,0 -4.48,0.364 -6.24,1.092c-1.76,0.728 -3.128,1.82 -4.104,3.276c-0.976,1.456 -1.48,3.28 -1.512,5.472Z" style="fill-opacity:0.33;fill-rule:nonzero;"/><path d="M0.72,187.44l34.56,0l0,6.624l-23.04,15.024l23.04,0l0,6.624l-34.56,0l0,-6.624l23.04,-15.024l-23.04,0l0,-6.624Z" style="fill-opacity:0.33;fill-rule:nonzero;"/><path d="M0.72,219.84l34.56,0l0,22.56l-6.096,0l0,-16.032l-7.392,0l0,13.152l-6.096,0l0,-13.152l-8.88,0l0,16.032l-6.096,0l0,-22.56Z" style="fill-opacity:0.33;fill-rule:nonzero;"/></g></svg>