<?xml version="1.0" encoding="UTF-8" standalone="no"?><!DOCTYPE svg PUBLIC "-//W3C//DTD SVG 1.1//EN" "http://www.w3.org/Graphics/SVG/1.1/DTD/svg11.dtd"><svg width="100%" height="100%" viewBox="0 0 181 181" version="1.1" xmlns="http://www.w3.org/2000/svg" xmlns:xlink="http://www.w3.org/1999/xlink" xml:space="preserve" xmlns:serif="http://www.serif.com/" style="fill-rule:evenodd;clip-rule:evenodd;stroke-linejoin:round;stroke-miterlimit:2;"><g><circle cx="90.137" cy="90.137" r="90.137" style="fill:#fff;fill-opacity:0.16;"/><g><g><path d="M48.714,82.248c-2.317,-2.317 -6.079,-2.317 -8.396,0l-8.396,8.396c-2.317,2.317 -2.317,6.079 0,8.396l38.301,38.301c2.317,2.317 6.079,2.317 8.396,0l8.396,-8.396c2.317,-2.317 2.317,-6.079 0,-8.396l-38.301,-38.301Z" style="fill:#fff;"/><path d="M147.159,68.197c2.317,-2.317 2.317,-6.079 0,-8.396l-8.396,-8.396c-2.317,-2.317 -6.079,-2.317 -8.396,0l-69.143,69.144c-2.317,2.317 -2.317,6.079 0,8.396l8.396,8.396c2.317,2.317 6.079,2.317 8.396,0l69.143,-69.144Z" style="fill:#fff;"/></g></g></g></svg>