<?xml version="1.0" encoding="UTF-8" standalone="no"?><!DOCTYPE svg PUBLIC "-//W3C//DTD SVG 1.1//EN" "http://www.w3.org/Graphics/SVG/1.1/DTD/svg11.dtd"><svg width="100%" height="100%" viewBox="0 0 181 181" version="1.1" xmlns="http://www.w3.org/2000/svg" xmlns:xlink="http://www.w3.org/1999/xlink" xml:space="preserve" xmlns:serif="http://www.serif.com/" style="fill-rule:evenodd;clip-rule:evenodd;stroke-linejoin:round;stroke-miterlimit:2;"><g><circle cx="90.137" cy="90.137" r="90.137" style="fill:#1c8dbd;fill-opacity:0.75;"/></g><path d="M64.25,79.543c-2.317,-2.317 -6.079,-2.317 -8.396,0l-8.396,8.396c-2.317,2.317 -2.317,6.079 0,8.396l30.515,30.514c2.317,2.317 6.079,2.317 8.396,0l8.396,-8.396c2.317,-2.316 2.317,-6.079 0,-8.396l-30.515,-30.514Z" style="fill:#fff;"/><path d="M138.398,74.217c2.317,-2.317 2.317,-6.079 0,-8.396l-8.396,-8.396c-2.317,-2.317 -6.079,-2.317 -8.396,0l-52.633,52.632c-2.317,2.317 -2.317,6.08 0,8.396l8.396,8.396c2.317,2.317 6.079,2.317 8.396,0l52.633,-52.632Z" style="fill:#fff;"/></svg>