<?xml version="1.0" encoding="UTF-8" standalone="no"?><!DOCTYPE svg PUBLIC "-//W3C//DTD SVG 1.1//EN" "http://www.w3.org/Graphics/SVG/1.1/DTD/svg11.dtd"><svg width="100%" height="100%" viewBox="0 0 181 181" version="1.1" xmlns="http://www.w3.org/2000/svg" xmlns:xlink="http://www.w3.org/1999/xlink" xml:space="preserve" xmlns:serif="http://www.serif.com/" style="fill-rule:evenodd;clip-rule:evenodd;stroke-linejoin:round;stroke-miterlimit:2;"><g><circle cx="90.137" cy="90.137" r="90.137" style="fill:#fff;fill-opacity:0.16;"/><g><path d="M130.759,66.367c2.325,-2.325 2.325,-6.101 0,-8.426l-8.426,-8.426c-2.325,-2.325 -6.1,-2.325 -8.426,0l-64.392,64.392c-2.325,2.326 -2.325,6.101 0,8.426l8.426,8.426c2.325,2.325 6.101,2.325 8.426,0l64.392,-64.392Z" style="fill:#fff;"/><path d="M130.759,113.907c2.325,2.326 2.325,6.101 0,8.426l-8.426,8.426c-2.325,2.325 -6.1,2.325 -8.426,0l-64.392,-64.392c-2.325,-2.325 -2.325,-6.101 0,-8.426l8.426,-8.426c2.325,-2.325 6.101,-2.325 8.426,0l64.392,64.392Z" style="fill:#fff;"/></g></g></svg>