<?xml version="1.0" encoding="UTF-8" standalone="no"?><!DOCTYPE svg PUBLIC "-//W3C//DTD SVG 1.1//EN" "http://www.w3.org/Graphics/SVG/1.1/DTD/svg11.dtd"><svg width="100%" height="100%" viewBox="0 0 614 179" version="1.1" xmlns="http://www.w3.org/2000/svg" xmlns:xlink="http://www.w3.org/1999/xlink" xml:space="preserve" xmlns:serif="http://www.serif.com/" style="fill-rule:evenodd;clip-rule:evenodd;stroke-linejoin:round;stroke-miterlimit:2;"><path d="M443.883,0l-44.907,178.169l-7.133,0l44.583,-178.169l7.457,0Zm31.452,61.119c11.564,0 21.21,3.134 28.938,9.403c7.728,6.269 12.564,14.807 14.51,25.615l-24.156,0c-0.973,-4.756 -3.189,-8.511 -6.647,-11.267c-3.459,-2.756 -7.836,-4.134 -13.132,-4.134c-6.052,0 -11.105,2.242 -15.158,6.728c-4.053,4.485 -6.079,11.051 -6.079,19.697c0,8.646 2.026,15.212 6.079,19.698c4.053,4.485 9.106,6.728 15.158,6.728c5.296,0 9.673,-1.378 13.132,-4.135c3.458,-2.756 5.674,-6.511 6.647,-11.267l24.156,0c-1.946,10.808 -6.782,19.346 -14.51,25.615c-7.728,6.269 -17.374,9.403 -28.938,9.403c-8.755,0 -16.537,-1.864 -23.346,-5.593c-6.809,-3.729 -12.105,-9.052 -15.887,-15.969c-3.783,-6.917 -5.675,-15.077 -5.675,-24.48c0,-9.403 1.892,-17.59 5.675,-24.561c3.782,-6.971 9.078,-12.294 15.887,-15.969c6.809,-3.675 14.591,-5.512 23.346,-5.512Zm-200.867,0c7.566,0 14.051,1.783 19.455,5.35c5.404,3.567 9.241,8.376 11.51,14.429l0,-18.644l22.697,0l0,89.814l-22.697,0l0,-18.806c-2.269,6.053 -6.106,10.889 -11.51,14.51c-5.404,3.621 -11.889,5.431 -19.455,5.431c-7.565,0 -14.374,-1.837 -20.427,-5.512c-6.052,-3.675 -10.781,-8.998 -14.185,-15.969c-3.405,-6.971 -5.107,-15.158 -5.107,-24.561c0,-9.403 1.702,-17.59 5.107,-24.561c3.404,-6.971 8.133,-12.294 14.185,-15.969c6.053,-3.675 12.862,-5.512 20.427,-5.512Zm-136.666,1.135l-24.156,89.814l-25.291,0l-19.292,-65.334l-19.779,65.334l-25.29,0l-23.994,-89.814l22.859,0l14.591,69.387l19.94,-69.387l24.156,0l20.103,69.387l14.753,-69.387l21.4,0Zm250.312,70.198l0,19.616l-11.997,0c-10.051,0 -17.752,-2.432 -23.102,-7.295c-5.35,-4.864 -8.025,-12.97 -8.025,-24.318l0,-38.909l-12.483,0l0,-19.292l12.483,0l0,-22.21l22.859,0l0,22.21l20.103,0l0,19.292l-20.103,0l0,39.233c0,4.323 0.865,7.349 2.594,9.079c1.729,1.729 4.648,2.594 8.755,2.594l8.916,0Zm191.626,-71.495c10.375,0 18.643,3.404 24.804,10.213c6.16,6.81 9.241,16.375 9.241,28.696l0,52.202l-22.697,0l0,-49.608c0,-7.134 -1.837,-12.673 -5.512,-16.618c-3.675,-3.945 -8.701,-5.917 -15.077,-5.917c-6.485,0 -11.673,2.107 -15.564,6.323c-3.891,4.215 -5.836,10.267 -5.836,18.157l0,47.663l-22.859,0l0,-119.968l22.859,0l0,48.149c2.378,-6.052 6.296,-10.781 11.754,-14.185c5.458,-3.405 11.753,-5.107 18.887,-5.107Zm-385.845,0c10.376,0 18.644,3.404 24.804,10.213c6.161,6.81 9.241,16.375 9.241,28.696l0,52.202l-22.697,0l0,-49.608c0,-7.134 -1.837,-12.673 -5.512,-16.618c-3.674,-3.945 -8.7,-5.917 -15.077,-5.917c-6.485,0 -11.672,2.107 -15.563,6.323c-3.891,4.215 -5.837,10.267 -5.837,18.157l0,47.663l-22.858,0l0,-119.968l22.858,0l0,48.149c2.378,-6.052 6.296,-10.781 11.754,-14.185c5.458,-3.405 11.754,-5.107 18.887,-5.107Zm87.707,20.103c-7.134,0 -12.862,2.323 -17.185,6.971c-4.323,4.647 -6.485,11.024 -6.485,19.13c0,8.106 2.162,14.456 6.485,19.049c4.323,4.593 10.051,6.89 17.185,6.89c6.917,0 12.618,-2.351 17.103,-7.052c4.486,-4.702 6.728,-10.997 6.728,-18.887c0,-7.998 -2.242,-14.348 -6.728,-19.049c-4.485,-4.701 -10.186,-7.052 -17.103,-7.052Z" style="fill:#fff;fill-rule:nonzero;"/></svg>