<?xml version="1.0" encoding="UTF-8" standalone="no"?>
<!DOCTYPE svg PUBLIC "-//W3C//DTD SVG 1.1//EN" "http://www.w3.org/Graphics/SVG/1.1/DTD/svg11.dtd">
<svg width="100%" height="100%" viewBox="0 0 643 643" version="1.1" xmlns="http://www.w3.org/2000/svg" xmlns:xlink="http://www.w3.org/1999/xlink" xml:space="preserve" xmlns:serif="http://www.serif.com/" style="fill-rule:evenodd;clip-rule:evenodd;stroke-linejoin:round;stroke-miterlimit:2;">
    <g transform="matrix(1,0,0,1,-2274.88,-968.382)">
        <g transform="matrix(0.985337,0,0,0.985337,345.035,903.82)">
            <circle cx="2284.43" cy="391.386" r="309.625" style="fill:rgb(216,216,216);"/>
            <path d="M2284.43,65.523C2104.58,65.523 1958.56,211.538 1958.56,391.386C1958.56,571.235 2104.58,717.249 2284.43,717.249C2464.27,717.249 2610.29,571.235 2610.29,391.386C2610.29,211.538 2464.27,65.523 2284.43,65.523ZM2284.43,81.762C2455.31,81.762 2594.05,220.5 2594.05,391.386C2594.05,562.273 2455.31,701.011 2284.43,701.011C2113.54,701.011 1974.8,562.273 1974.8,391.386C1974.8,220.5 2113.54,81.762 2284.43,81.762Z" style="fill:white;"/>
        </g>
        <g transform="matrix(1.09484,0,0,1.09484,-458.269,-508.63)">
            <g transform="matrix(0.545859,0,0,0.545859,1221.62,780.646)">
                <path d="M2631.54,1814.13C2664.03,1742.82 2705.71,1625.69 2705.71,1625.69C2705.71,1625.69 2568.13,1387.41 2705.71,1381.83C2747.01,1380.15 2719.33,1389.2 2776.59,1317.77C2833.84,1246.33 2911.18,1236.35 2988.17,1252.3C3065.16,1268.25 3273.83,1383.2 3088.4,1594.68C3018.48,1674.42 3000.03,1672.68 2960.35,1731.51C2883.07,1846.05 2854.56,1911.88 2854.56,1911.88L2631.54,1814.13Z" style="fill:rgb(211,4,0);"/>
            </g>
            <g transform="matrix(0.956348,0.413972,-0.397248,0.917711,1039.57,-1000.45)">
                <path d="M2621.36,1825.69C2621.36,1815.06 2613.08,1806.43 2602.88,1806.43L2486.88,1806.43C2476.68,1806.43 2468.4,1815.06 2468.4,1825.69L2468.4,1864.22C2468.4,1874.85 2476.68,1883.48 2486.88,1883.48L2602.88,1883.48C2613.08,1883.48 2621.36,1874.85 2621.36,1864.22L2621.36,1825.69Z" style="fill:rgb(138,19,0);"/>
            </g>
        </g>
    </g>
</svg>
