<?xml version="1.0" encoding="UTF-8" standalone="no"?>
<!DOCTYPE svg PUBLIC "-//W3C//DTD SVG 1.1//EN" "http://www.w3.org/Graphics/SVG/1.1/DTD/svg11.dtd">
<svg width="100%" height="100%" viewBox="0 0 519 615" version="1.1" xmlns="http://www.w3.org/2000/svg" xmlns:xlink="http://www.w3.org/1999/xlink" xml:space="preserve" xmlns:serif="http://www.serif.com/" style="fill-rule:evenodd;clip-rule:evenodd;stroke-linecap:round;stroke-linejoin:round;stroke-miterlimit:1.5;">
    <g transform="matrix(1,0,0,1,-112.674,-99.0976)">
        <g transform="matrix(0.853398,0,0,0.853398,-2488.62,16.1395)">
            <circle cx="3351.65" cy="597.199" r="205.324" style="fill:rgb(255,178,15);stroke:rgb(214,139,9);stroke-width:29.29px;"/>
        </g>
        <g transform="matrix(-1.02245,0,0,0.860723,1174.52,-154.243)">
            <path d="M1038.54,294.335L884.855,294.335L709.916,561.736L863.6,561.736L1038.54,294.335Z" style="fill:rgb(213,119,109);"/>
        </g>
        <g transform="matrix(1.23429,0,0,0.615218,-530.101,-47.7733)">
            <path d="M657.084,678.02L657.084,593.138L804.12,593.138L804.12,678.02" style="fill:none;stroke:rgb(214,139,9);stroke-width:25.64px;"/>
        </g>
        <g transform="matrix(1.02245,0,0,0.860723,-430.689,-154.243)">
            <path d="M1038.54,294.335L884.855,294.335L709.916,561.736L863.6,561.736L1038.54,294.335Z" style="fill:rgb(196,78,65);"/>
        </g>
        <g transform="matrix(144.213,0,0,144.213,292.681,577.705)">
            <path d="M0.195,0L0.195,-0.572L0.06,-0.489L0.06,-0.639L0.195,-0.72L0.334,-0.72L0.334,0L0.195,0Z" style="fill-opacity:0.5;fill-rule:nonzero;"/>
        </g>
        <g transform="matrix(144.213,0,0,144.213,358.154,577.705)">
            <path d="M0.337,0.015C0.284,0.015 0.237,0.004 0.197,-0.019C0.157,-0.041 0.126,-0.072 0.104,-0.112C0.081,-0.152 0.07,-0.199 0.07,-0.252L0.07,-0.468C0.07,-0.521 0.081,-0.568 0.104,-0.608C0.126,-0.648 0.157,-0.679 0.197,-0.702C0.237,-0.724 0.284,-0.735 0.337,-0.735C0.39,-0.735 0.437,-0.724 0.477,-0.702C0.517,-0.679 0.548,-0.648 0.571,-0.608C0.593,-0.568 0.604,-0.521 0.604,-0.468L0.604,-0.252C0.604,-0.199 0.593,-0.152 0.571,-0.112C0.548,-0.072 0.517,-0.041 0.477,-0.019C0.437,0.004 0.39,0.015 0.337,0.015ZM0.337,-0.114C0.361,-0.114 0.383,-0.12 0.402,-0.131C0.421,-0.142 0.437,-0.158 0.448,-0.177C0.459,-0.196 0.465,-0.218 0.465,-0.242L0.465,-0.479C0.465,-0.503 0.459,-0.525 0.448,-0.544C0.437,-0.563 0.421,-0.579 0.402,-0.59C0.383,-0.601 0.361,-0.607 0.337,-0.607C0.313,-0.607 0.291,-0.601 0.272,-0.59C0.253,-0.579 0.237,-0.563 0.226,-0.544C0.215,-0.525 0.209,-0.503 0.209,-0.479L0.209,-0.242C0.209,-0.218 0.215,-0.196 0.226,-0.177C0.237,-0.158 0.253,-0.142 0.272,-0.131C0.291,-0.12 0.313,-0.114 0.337,-0.114Z" style="fill-opacity:0.5;fill-rule:nonzero;"/>
        </g>
    </g>
</svg>
