<?xml version="1.0" encoding="UTF-8" standalone="no"?>
<!DOCTYPE svg PUBLIC "-//W3C//DTD SVG 1.1//EN" "http://www.w3.org/Graphics/SVG/1.1/DTD/svg11.dtd">
<svg width="100%" height="100%" viewBox="0 0 658 658" version="1.1" xmlns="http://www.w3.org/2000/svg" xmlns:xlink="http://www.w3.org/1999/xlink" xml:space="preserve" xmlns:serif="http://www.serif.com/" style="fill-rule:evenodd;clip-rule:evenodd;stroke-linecap:round;stroke-linejoin:round;stroke-miterlimit:1.5;">
    <g transform="matrix(1,0,0,1,-927.513,-4204.47)">
        <g transform="matrix(0.417012,0,0,0.417012,660.592,4020.66)">
            <circle cx="1428.54" cy="1229.23" r="769.271" style="fill:rgb(145,145,145);stroke:rgb(58,58,58);stroke-width:38.37px;"/>
        </g>
        <g transform="matrix(1.14887,0,0,1.14887,-179.115,-665.409)">
            <g transform="matrix(0.719016,0.0501276,-0.0501276,0.719016,573.927,1197.47)">
                <path d="M1091.37,4487.75C1089.38,4530.91 1141.7,4675.25 1160.26,4697.78C1177.29,4718.45 1166.45,4739.75 1264.61,4775.42C1294.95,4786.45 1335.82,4779.87 1361.11,4764.81C1386.41,4749.74 1410.77,4719.95 1416.07,4686.11C1421.87,4649.01 1432.87,4611.97 1424.86,4566.92C1415.6,4514.84 1432.2,4437.85 1410.13,4404.48C1391.79,4376.75 1347.88,4379.58 1314.66,4378.01C1272.5,4376.02 1164.89,4372.58 1132.82,4395.57C1100.76,4418.56 1093.35,4444.59 1091.37,4487.75Z" style="fill:rgb(255,236,197);"/>
            </g>
            <g transform="matrix(0.324388,0.0226153,-0.0226153,0.324388,864.227,4061.45)">
                <path d="M1183.05,1104.12C1244.41,1050.98 1461.34,1055.45 1461.34,1055.45C1461.34,1055.45 1506.47,1068.99 1562.48,1132.78C1613.89,1191.33 1646.65,1275.1 1646.65,1275.1C1668.86,1184.25 1740.12,1067.2 1563.61,932.239C1512.99,893.529 1473.26,927.294 1473.26,927.294C1473.26,927.294 1463.59,834.617 1347.54,808.337C1265.97,789.864 1150.09,805.254 1086.55,831.78C1031.86,854.612 981.825,918.934 981.825,918.934C981.825,918.934 1006.57,904.998 1029.04,902.229C1046.98,900.019 1045.41,900.33 1045.41,900.33C1045.41,900.33 944.158,966.608 922.902,1108.02C915.662,1156.18 852.897,1317.69 845.995,1423.33C845.254,1434.66 849.3,1450.65 849.3,1450.65C849.3,1450.65 858.364,1435.97 863.582,1431.08C873.864,1421.45 881.474,1415.95 881.474,1415.95C881.474,1415.95 873.028,1465.49 882.695,1542.48C890.654,1605.88 909.539,1654.86 909.539,1654.86C909.539,1654.86 913.718,1621.6 919.175,1610.13C932.144,1582.88 939.877,1584.96 939.877,1584.96C939.877,1584.96 959.989,1630.72 966.77,1649.04C972.54,1664.62 985.837,1757.51 985.837,1757.51C985.837,1757.51 1019.78,1672.57 1022.78,1629.68C1025.21,1594.84 1001,1557.81 1002.42,1538.69C1010.44,1430.87 1041.08,1451.6 1063.56,1399.43C1135.42,1232.72 1084.22,1182.04 1084.22,1182.04C1084.22,1182.04 1121.69,1157.27 1183.05,1104.12Z" style="fill:rgb(56,39,34);"/>
            </g>
            <g transform="matrix(1.31862,-0.218749,0.218749,1.31862,-1372.35,-1203.67)">
                <path d="M1164.81,4527.58C1172.29,4527.58 1174.14,4529.75 1174.14,4542.77C1174.14,4548.25 1172.24,4553.61 1170.44,4557.62C1167.95,4563.12 1169.14,4574.73 1164.81,4574.73C1157.33,4574.73 1151.26,4564.17 1151.26,4551.16C1151.26,4538.14 1157.33,4527.58 1164.81,4527.58Z" style="fill:rgb(255,236,197);"/>
            </g>
            <g transform="matrix(1,0,0,1.0226,0,-106.292)">
                <path d="M1314.13,4599.9C1307.4,4600.94 1299.34,4603.65 1291.22,4604.06C1280.82,4604.6 1266.54,4601.7 1256.31,4605.72C1246.08,4609.74 1237.86,4623.18 1233.93,4633.41C1230.01,4643.63 1231.01,4654.76 1232.75,4663.56C1234.2,4670.89 1247.27,4696.49 1253.23,4698.57C1260.25,4701.03 1277.71,4701.67 1289.27,4699.61C1296.3,4698.36 1315.22,4694.31 1328.62,4682.45C1336.26,4675.69 1343.18,4661.09 1345.14,4651.06C1347.88,4637.01 1354.73,4631.45 1338.01,4604.49C1335.82,4600.95 1324.92,4598.23 1314.13,4599.9Z" style="fill:rgb(189,189,189);"/>
            </g>
            <g transform="matrix(1,0,0,1.58687,-6.20763,-2731.84)">
                <path d="M1254.6,4646.7C1255.85,4642.31 1260.53,4637.22 1266.84,4635.09C1272.4,4633.22 1287.43,4627.92 1325.19,4629.31C1336.69,4629.73 1339.01,4631.87 1341.84,4635.34C1344.67,4638.81 1345.94,4646.54 1342.17,4650.12C1336.33,4655.66 1315.35,4661.07 1300.99,4661.9C1280.24,4663.11 1265.34,4663.13 1259.34,4661.43C1256.04,4660.49 1253.34,4651.09 1254.6,4646.7Z" style="fill:rgb(255,236,197);"/>
            </g>
        </g>
    </g>
</svg>
