<?xml version="1.0" encoding="UTF-8" standalone="no"?>
<!DOCTYPE svg PUBLIC "-//W3C//DTD SVG 1.1//EN" "http://www.w3.org/Graphics/SVG/1.1/DTD/svg11.dtd">
<svg width="100%" height="100%" viewBox="0 0 643 643" version="1.1" xmlns="http://www.w3.org/2000/svg" xmlns:xlink="http://www.w3.org/1999/xlink" xml:space="preserve" xmlns:serif="http://www.serif.com/" style="fill-rule:evenodd;clip-rule:evenodd;stroke-linejoin:round;stroke-miterlimit:2;">
    <g transform="matrix(1,0,0,1,-115.61,-4213.25)">
        <g transform="matrix(0.985337,0,0,0.985337,-1814.23,4148.69)">
            <circle cx="2284.43" cy="391.386" r="309.625" style="fill:white;"/>
            <path d="M2284.43,65.523C2104.58,65.523 1958.56,211.538 1958.56,391.386C1958.56,571.235 2104.58,717.249 2284.43,717.249C2464.27,717.249 2610.29,571.235 2610.29,391.386C2610.29,211.538 2464.27,65.523 2284.43,65.523ZM2284.43,81.762C2455.31,81.762 2594.05,220.5 2594.05,391.386C2594.05,562.273 2455.31,701.011 2284.43,701.011C2113.54,701.011 1974.8,562.273 1974.8,391.386C1974.8,220.5 2113.54,81.762 2284.43,81.762Z" style="fill:rgb(216,99,116);"/>
        </g>
        <g transform="matrix(1.51663,0,0,1.26637,-213.906,-1203.95)">
            <path d="M573.533,4488.72C573.533,4465.21 557.6,4446.13 537.975,4446.13L319.979,4446.13C300.354,4446.13 284.42,4465.21 284.42,4488.72L284.42,4573.89C284.42,4597.39 300.354,4616.47 319.979,4616.47L537.975,4616.47C557.6,4616.47 573.533,4597.39 573.533,4573.89L573.533,4488.72Z" style="fill:rgb(214,56,79);"/>
        </g>
        <g transform="matrix(1.15228,0,0,1.15228,-46.4719,-535.227)">
            <path d="M358.124,4372.52C367.676,4355.45 386.781,4355.45 396.334,4363.98C405.886,4372.52 405.886,4389.59 396.334,4406.65C389.647,4419.46 372.453,4432.26 358.124,4440.79C343.795,4432.26 326.601,4419.46 319.914,4406.65C310.362,4389.59 310.362,4372.52 319.914,4363.98C329.467,4355.45 348.572,4355.45 358.124,4372.52Z" style="fill:white;"/>
        </g>
        <g transform="matrix(0.995962,0,0,0.995962,-7.53668,15.8159)">
            <text x="460.327px" y="4581.82px" style="font-family:'HelveticaNeue-Bold', 'Helvetica Neue';font-weight:700;font-size:128.33px;fill:white;">½</text>
        </g>
        <g transform="matrix(1.44552,-1.44552,1.44552,1.44552,-6949.19,-1540.23)">
            <path d="M440.702,4679.02C440.702,4673.38 436.123,4668.8 430.482,4668.8L410.042,4668.8C404.401,4668.8 399.821,4673.38 399.821,4679.02L399.821,4699.46C399.821,4705.1 404.401,4709.68 410.042,4709.68L430.482,4709.68C436.123,4709.68 440.702,4705.1 440.702,4699.46L440.702,4679.02Z" style="fill:rgb(214,56,79);"/>
        </g>
    </g>
</svg>
