<?xml version="1.0" encoding="UTF-8" standalone="no"?>
<!DOCTYPE svg PUBLIC "-//W3C//DTD SVG 1.1//EN" "http://www.w3.org/Graphics/SVG/1.1/DTD/svg11.dtd">
<svg width="100%" height="100%" viewBox="0 0 643 643" version="1.1" xmlns="http://www.w3.org/2000/svg" xmlns:xlink="http://www.w3.org/1999/xlink" xml:space="preserve" xmlns:serif="http://www.serif.com/" style="fill-rule:evenodd;clip-rule:evenodd;stroke-linejoin:round;stroke-miterlimit:2;">
    <g transform="matrix(1,0,0,1,-1512.23,-1813.92)">
        <g transform="matrix(0.985337,0,0,0.985337,-417.618,1749.35)">
            <circle cx="2284.43" cy="391.386" r="309.625" style="fill:rgb(255,178,15);"/>
            <path d="M2284.43,65.523C2104.58,65.523 1958.56,211.538 1958.56,391.386C1958.56,571.235 2104.58,717.249 2284.43,717.249C2464.27,717.249 2610.29,571.235 2610.29,391.386C2610.29,211.538 2464.27,65.523 2284.43,65.523ZM2284.43,81.762C2455.31,81.762 2594.05,220.5 2594.05,391.386C2594.05,562.273 2455.31,701.011 2284.43,701.011C2113.54,701.011 1974.8,562.273 1974.8,391.386C1974.8,220.5 2113.54,81.762 2284.43,81.762Z" style="fill:rgb(214,139,9);"/>
        </g>
        <g transform="matrix(1.41787,0,0,1.31064,-761.872,-832.852)">
            <path d="M1948.26,2177.69C1943.88,2178.07 1850.22,2225.38 1850.34,2244.85C1850.46,2264.32 1944.6,2294.86 1948.98,2294.49C1953.37,2294.12 1876.86,2246.79 1876.65,2242.61C1876.44,2238.43 1952.65,2177.32 1948.26,2177.69Z" style="fill:rgb(134,93,22);"/>
        </g>
        <g transform="matrix(-1.41787,0,0,1.31064,4420.71,-832.852)">
            <path d="M1948.26,2177.69C1943.88,2178.07 1850.22,2225.38 1850.34,2244.85C1850.46,2264.32 1944.6,2294.86 1948.98,2294.49C1953.37,2294.12 1876.86,2246.79 1876.65,2242.61C1876.44,2238.43 1952.65,2177.32 1948.26,2177.69Z" style="fill:rgb(134,93,22);"/>
        </g>
        <g transform="matrix(1,0,0,1,-3.89342,-11.2192)">
            <path d="M1653.84,2236.5L2021.35,2236.5C2045.81,2256 1948.87,2377.04 1833.31,2377.04C1717.75,2377.04 1627.57,2256 1653.84,2236.5Z" style="fill:rgb(134,93,22);"/>
        </g>
        <g transform="matrix(0.975899,0,0,0.975899,39.9623,51.5224)">
            <path d="M1657.02,2236.5L2017.97,2236.5C2017.54,2260.51 1948.87,2280.82 1833.31,2280.82C1717.75,2280.82 1652.79,2258.25 1657.02,2236.5Z" style="fill:white;"/>
        </g>
    </g>
</svg>
