<?xml version="1.0" encoding="UTF-8" standalone="no"?>
<!DOCTYPE svg PUBLIC "-//W3C//DTD SVG 1.1//EN" "http://www.w3.org/Graphics/SVG/1.1/DTD/svg11.dtd">
<svg width="100%" height="100%" viewBox="0 0 643 643" version="1.1" xmlns="http://www.w3.org/2000/svg" xmlns:xlink="http://www.w3.org/1999/xlink" xml:space="preserve" xmlns:serif="http://www.serif.com/" style="fill-rule:evenodd;clip-rule:evenodd;stroke-linecap:round;stroke-linejoin:round;stroke-miterlimit:1.5;">
    <g transform="matrix(1,0,0,1,-794.378,-976.64)">
        <g transform="matrix(0.985337,0,0,0.985337,-1135.47,912.078)">
            <circle cx="2284.43" cy="391.386" r="309.625" style="fill:rgb(108,1,0);"/>
            <path d="M2284.43,65.523C2104.58,65.523 1958.56,211.538 1958.56,391.386C1958.56,571.235 2104.58,717.249 2284.43,717.249C2464.27,717.249 2610.29,571.235 2610.29,391.386C2610.29,211.538 2464.27,65.523 2284.43,65.523ZM2284.43,81.762C2455.31,81.762 2594.05,220.5 2594.05,391.386C2594.05,562.273 2455.31,701.011 2284.43,701.011C2113.54,701.011 1974.8,562.273 1974.8,391.386C1974.8,220.5 2113.54,81.762 2284.43,81.762Z" style="fill:rgb(214,139,9);"/>
        </g>
        <g transform="matrix(0.722439,0,0,0.722439,-274.363,297.558)">
            <g transform="matrix(0.612698,0,0,0.734778,1133.71,392.873)">
                <circle cx="1288.72" cy="1367.35" r="381.585" style="fill:rgb(255,236,197);"/>
            </g>
            <g transform="matrix(0.880464,0,0,0.880464,143.091,136.811)">
                <g transform="matrix(0.73455,-0.0412239,0.0271344,0.483496,458.777,843.889)">
                    <path d="M2000.21,1036.37L2079.6,1204.55L2021.41,1218.58L2038.79,1354.3L1965.34,1180.33L2014.17,1170.57L2000.21,1036.37Z" style="fill:rgb(255,178,15);"/>
                </g>
                <g transform="matrix(0.773783,0,0,0.773783,219.313,455.307)">
                    <g transform="matrix(1.09783,0,0,1.09783,1006.46,16.6186)">
                        <circle cx="1070.04" cy="1218.47" r="92.161" style="fill:none;stroke:black;stroke-width:33.31px;"/>
                    </g>
                    <g transform="matrix(1.09783,0,0,1.09783,1315.7,16.6186)">
                        <circle cx="1070.04" cy="1218.47" r="92.161" style="fill:none;stroke:black;stroke-width:33.31px;"/>
                    </g>
                    <g transform="matrix(1.09783,0,0,1.09783,909.335,-132.493)">
                        <path d="M1250.68,1354.3C1250.68,1354.3 1264.56,1339.9 1299.35,1339.9C1334.15,1339.9 1348.03,1354.3 1348.03,1354.3" style="fill:none;stroke:black;stroke-width:33.31px;"/>
                    </g>
                </g>
                <g transform="matrix(0.773783,0,0,0.773783,1027.73,445.823)">
                    <path d="M1237.08,1046.24C1237.08,1046.24 1295.19,1057.06 1348.03,1114.3C1366.91,1134.74 1405,1206.54 1405,1206.54C1405,1206.54 1432.23,1183.2 1445.11,1146.21C1461.38,1099.46 1461.34,1055.45 1461.34,1055.45C1461.34,1055.45 1496.76,1103.22 1552.76,1167.01C1604.17,1225.56 1628,1311.37 1628,1311.37C1650.2,1220.53 1699.4,1053.57 1535.36,903.695C1372.04,754.472 1159.14,849.529 1159.14,849.529C1159.14,849.529 1149.28,835.007 1086.83,832.933C1017.92,830.644 991.688,874.04 991.688,874.04C991.688,874.04 1022.92,879.121 1033.62,885.571C1047.38,893.864 1045.41,900.33 1045.41,900.33C1045.41,900.33 944.158,966.608 922.902,1108.02C905.571,1223.31 945.774,1366.55 945.774,1366.55C945.774,1366.55 942.255,1319.38 998.96,1236.87C1049.38,1163.51 1071.56,1151.01 1071.56,1151.01L1140,1224.94C1140,1224.94 1121.69,1157.27 1183.05,1104.12C1244.41,1050.98 1237.08,1046.24 1237.08,1046.24Z"/>
                </g>
            </g>
        </g>
    </g>
</svg>
