<?xml version="1.0" encoding="UTF-8" standalone="no"?>
<!DOCTYPE svg PUBLIC "-//W3C//DTD SVG 1.1//EN" "http://www.w3.org/Graphics/SVG/1.1/DTD/svg11.dtd">
<svg width="100%" height="100%" viewBox="0 0 643 643" version="1.1" xmlns="http://www.w3.org/2000/svg" xmlns:xlink="http://www.w3.org/1999/xlink" xml:space="preserve" xmlns:serif="http://www.serif.com/" style="fill-rule:evenodd;clip-rule:evenodd;stroke-linejoin:round;stroke-miterlimit:2;">
    <g transform="matrix(1,0,0,1,-1671.9,-2678.92)">
        <g transform="matrix(1,0,0,1,-114.183,1571.09)">
            <g transform="matrix(0.985337,0,0,0.985337,-143.757,1043.26)">
                <circle cx="2284.43" cy="391.386" r="309.625" style="fill:rgb(0,89,108);"/>
                <path d="M2284.43,65.523C2104.58,65.523 1958.56,211.538 1958.56,391.386C1958.56,571.235 2104.58,717.249 2284.43,717.249C2464.27,717.249 2610.29,571.235 2610.29,391.386C2610.29,211.538 2464.27,65.523 2284.43,65.523ZM2284.43,81.762C2455.31,81.762 2594.05,220.5 2594.05,391.386C2594.05,562.273 2455.31,701.011 2284.43,701.011C2113.54,701.011 1974.8,562.273 1974.8,391.386C1974.8,220.5 2113.54,81.762 2284.43,81.762Z" style="fill:rgb(0,69,84);"/>
            </g>
        </g>
        <g transform="matrix(0.617276,0,0,0.617276,788.341,1079.82)">
            <path d="M1934.75,2806.99C1864.46,2806.99 1807.39,2864.06 1807.39,2934.35C1807.39,3004.64 1864.46,3061.71 1934.75,3061.71C2005.05,3061.71 2062.12,3004.64 2062.12,2934.35C2062.12,2864.06 2005.05,2806.99 1934.75,2806.99ZM1934.75,2832.91C1990.74,2832.91 2036.2,2878.36 2036.2,2934.35C2036.2,2990.34 1990.74,3035.79 1934.75,3035.79C1878.77,3035.79 1833.31,2990.34 1833.31,2934.35C1833.31,2878.36 1878.77,2832.91 1934.75,2832.91Z" style="fill:white;fill-opacity:0.33;"/>
        </g>
        <g transform="matrix(1.21888,-1.21888,0.774079,0.774079,-2875.88,3089.23)">
            <path d="M2078.25,3081.51L2068.97,3081.51L2068.97,3150.36C2068.97,3152.38 2070.01,3154.02 2071.29,3154.02L2075.93,3154.02C2077.21,3154.02 2078.25,3152.38 2078.25,3150.36L2078.25,3081.51Z" style="fill:rgb(84,144,156);"/>
        </g>
        <g transform="matrix(0.629191,0,0,0.629191,509.2,2485.31)">
            <text x="2228.49px" y="1080px" style="font-family:'Manrope-ExtraBold', 'Manrope';font-weight:800;font-size:229.204px;fill:white;fill-opacity:0.33;">10</text>
        </g>
    </g>
</svg>
