<?xml version="1.0" encoding="UTF-8" standalone="no"?>
<!DOCTYPE svg PUBLIC "-//W3C//DTD SVG 1.1//EN" "http://www.w3.org/Graphics/SVG/1.1/DTD/svg11.dtd">
<svg width="100%" height="100%" viewBox="0 0 643 643" version="1.1" xmlns="http://www.w3.org/2000/svg" xmlns:xlink="http://www.w3.org/1999/xlink" xml:space="preserve" xmlns:serif="http://www.serif.com/" style="fill-rule:evenodd;clip-rule:evenodd;stroke-linejoin:round;stroke-miterlimit:2;">
    <g transform="matrix(1,0,0,1,-2215.94,-1813.92)">
        <g transform="matrix(0.985337,0,0,0.985337,286.099,1749.35)">
            <circle cx="2284.43" cy="391.386" r="309.625" style="fill:rgb(255,178,15);"/>
            <path d="M2284.43,65.523C2104.58,65.523 1958.56,211.538 1958.56,391.386C1958.56,571.235 2104.58,717.249 2284.43,717.249C2464.27,717.249 2610.29,571.235 2610.29,391.386C2610.29,211.538 2464.27,65.523 2284.43,65.523ZM2284.43,81.762C2455.31,81.762 2594.05,220.5 2594.05,391.386C2594.05,562.273 2455.31,701.011 2284.43,701.011C2113.54,701.011 1974.8,562.273 1974.8,391.386C1974.8,220.5 2113.54,81.762 2284.43,81.762Z" style="fill:rgb(214,139,9);"/>
        </g>
        <g transform="matrix(1.41787,0,0,2.39734,-30.8162,-3316.52)">
            <path d="M1952.31,2284.42C1931.99,2245.97 1848.78,2267.79 1838.94,2281.9C1830.7,2293.7 1864.96,2273.26 1901.83,2275.36C1919.91,2276.39 1954.23,2288.05 1952.31,2284.42Z" style="fill:rgb(134,93,22);"/>
        </g>
        <g transform="matrix(0.765849,0.842006,-0.946423,0.860821,3412.09,-1479.78)">
            <path d="M1952.31,2284.42C1931.99,2245.97 1848.78,2267.79 1838.94,2281.9C1830.7,2293.7 1857.54,2278.79 1897.87,2276.3C1921.69,2274.82 1954.23,2288.05 1952.31,2284.42Z" style="fill:rgb(134,93,22);"/>
        </g>
        <g transform="matrix(-0.765849,0.842006,0.946423,0.860821,1670.21,-1479.78)">
            <path d="M1952.31,2284.42C1931.99,2245.97 1848.78,2267.79 1838.94,2281.9C1830.7,2293.7 1857.54,2278.79 1897.87,2276.3C1921.69,2274.82 1954.23,2288.05 1952.31,2284.42Z" style="fill:rgb(134,93,22);"/>
        </g>
        <g transform="matrix(-1.41787,0,0,2.39734,5113.12,-3316.52)">
            <path d="M1952.31,2284.42C1931.99,2245.97 1848.78,2267.79 1838.94,2281.9C1830.7,2293.7 1864.96,2273.26 1901.83,2275.36C1919.91,2276.39 1954.23,2288.05 1952.31,2284.42Z" style="fill:rgb(134,93,22);"/>
        </g>
        <g transform="matrix(1,0,0,1,699.824,-11.2192)">
            <path d="M1653.84,2236.5L2021.35,2236.5C2045.81,2256 1948.87,2377.04 1833.31,2377.04C1717.75,2377.04 1627.57,2256 1653.84,2236.5Z" style="fill:rgb(134,93,22);"/>
        </g>
        <g transform="matrix(0.975899,0,0,0.975899,743.68,51.5224)">
            <path d="M1657.02,2236.5L2017.97,2236.5C2017.54,2260.51 1948.87,2280.82 1833.31,2280.82C1717.75,2280.82 1652.79,2258.25 1657.02,2236.5Z" style="fill:white;"/>
        </g>
        <g transform="matrix(1.07611,0,0,1.07611,-8.80377,24.6961)">
            <path d="M2519.38,2007.36C2519.38,2007.36 2548,2106.42 2556.4,2119.06C2586.38,2164.2 2642.8,2106 2610.01,2077.94C2595.11,2065.19 2519.38,2007.36 2519.38,2007.36Z" style="fill:rgb(0,165,255);"/>
            <path d="M2528.41,1995.55C2523.3,1991.65 2516.28,1991.47 2510.99,1995.09C2505.69,1998.71 2503.32,2005.32 2505.1,2011.49C2505.1,2011.49 2535.29,2114.16 2544.01,2127.29C2554.34,2142.83 2567.23,2149.25 2579.63,2150.36C2597.88,2151.99 2616.23,2141.26 2626.4,2125.65C2638.38,2107.26 2639.26,2083.4 2619.68,2066.65C2604.67,2053.8 2528.41,1995.55 2528.41,1995.55ZM2519.38,2007.36C2519.38,2007.36 2548,2106.42 2556.4,2119.06C2586.38,2164.2 2642.8,2106 2610.01,2077.94C2595.11,2065.19 2519.38,2007.36 2519.38,2007.36Z" style="fill:rgb(23,96,194);"/>
        </g>
        <g transform="matrix(-1.07611,0,0,1.07611,5091.11,24.6961)">
            <path d="M2519.38,2007.36C2519.38,2007.36 2548,2106.42 2556.4,2119.06C2586.38,2164.2 2642.8,2106 2610.01,2077.94C2595.11,2065.19 2519.38,2007.36 2519.38,2007.36Z" style="fill:rgb(0,165,255);"/>
            <path d="M2505.1,2011.49C2503.32,2005.32 2505.69,1998.71 2510.99,1995.09C2516.28,1991.47 2523.3,1991.65 2528.41,1995.55C2528.41,1995.55 2604.67,2053.8 2619.68,2066.65C2639.26,2083.4 2638.38,2107.26 2626.4,2125.65C2616.23,2141.26 2597.88,2151.99 2579.63,2150.36C2567.23,2149.25 2554.34,2142.83 2544.01,2127.29C2535.29,2114.16 2505.1,2011.49 2505.1,2011.49ZM2519.38,2007.36C2519.38,2007.36 2548,2106.42 2556.4,2119.06C2586.38,2164.2 2642.8,2106 2610.01,2077.94C2595.11,2065.19 2519.38,2007.36 2519.38,2007.36Z" style="fill:rgb(23,96,194);"/>
        </g>
    </g>
</svg>
