<?xml version="1.0" encoding="UTF-8" standalone="no"?>
<!DOCTYPE svg PUBLIC "-//W3C//DTD SVG 1.1//EN" "http://www.w3.org/Graphics/SVG/1.1/DTD/svg11.dtd">
<svg width="100%" height="100%" viewBox="0 0 659 643" version="1.1" xmlns="http://www.w3.org/2000/svg" xmlns:xlink="http://www.w3.org/1999/xlink" xml:space="preserve" xmlns:serif="http://www.serif.com/" style="fill-rule:evenodd;clip-rule:evenodd;stroke-linejoin:round;stroke-miterlimit:2;">
    <g transform="matrix(1,0,0,1,-2926.54,-1813.91)">
        <g transform="matrix(0.853327,-0.492669,0.492669,0.853327,1105.44,2926.49)">
            <circle cx="2284.43" cy="391.386" r="309.625" style="fill:rgb(255,178,15);"/>
            <path d="M2284.43,65.523C2104.58,65.523 1958.56,211.538 1958.56,391.386C1958.56,571.235 2104.58,717.249 2284.43,717.249C2464.27,717.249 2610.29,571.235 2610.29,391.386C2610.29,211.538 2464.27,65.523 2284.43,65.523ZM2284.43,81.762C2455.31,81.762 2594.05,220.5 2594.05,391.386C2594.05,562.273 2455.31,701.011 2284.43,701.011C2113.54,701.011 1974.8,562.273 1974.8,391.386C1974.8,220.5 2113.54,81.762 2284.43,81.762Z" style="fill:rgb(214,139,9);"/>
        </g>
        <g transform="matrix(1.22791,-0.708936,0.655321,1.13505,-483.797,862.358)">
            <path d="M1948.26,2177.69C1943.88,2178.07 1850.22,2225.38 1850.34,2244.85C1850.46,2264.32 1944.6,2294.86 1948.98,2294.49C1953.37,2294.12 1876.86,2246.79 1876.65,2242.61C1876.44,2238.43 1952.65,2177.32 1948.26,2177.69Z" style="fill:rgb(134,93,22);"/>
        </g>
        <g transform="matrix(-1.22791,0.708936,0.655321,1.13505,4004.45,-1728.93)">
            <path d="M1948.26,2177.69C1943.88,2178.07 1850.22,2225.38 1850.34,2244.85C1850.46,2264.32 1944.6,2294.86 1948.98,2294.49C1953.37,2294.12 1876.86,2246.79 1876.65,2242.61C1876.44,2238.43 1952.65,2177.32 1948.26,2177.69Z" style="fill:rgb(134,93,22);"/>
        </g>
        <g transform="matrix(0.866025,-0.5,0.5,0.866025,583.448,1194.92)">
            <path d="M1653.84,2236.5L2021.35,2236.5C2045.81,2256 1948.87,2377.04 1833.31,2377.04C1717.75,2377.04 1627.57,2256 1653.84,2236.5Z" style="fill:rgb(134,93,22);"/>
        </g>
        <g transform="matrix(0.845154,-0.48795,0.48795,0.845154,652.799,1227.33)">
            <path d="M1657.02,2236.5L2017.97,2236.5C2017.54,2260.51 1948.87,2280.82 1833.31,2280.82C1717.75,2280.82 1652.79,2258.25 1657.02,2236.5Z" style="fill:white;"/>
        </g>
        <g transform="matrix(0.612632,-0.544065,0.544065,0.612632,814.805,2209.49)">
            <path d="M2519.38,2007.36C2519.38,2007.36 2548,2106.42 2556.4,2119.06C2586.38,2164.2 2642.8,2106 2610.01,2077.94C2595.11,2065.19 2519.38,2007.36 2519.38,2007.36Z" style="fill:rgb(0,165,255);"/>
            <path d="M2531.23,1991.84C2524.53,1986.73 2515.31,1986.49 2508.36,1991.24C2501.4,1996 2498.28,2004.69 2500.62,2012.78C2500.62,2012.78 2531.31,2116.59 2540.13,2129.87C2551.44,2146.88 2565.64,2153.78 2579.21,2155C2599.12,2156.78 2619.21,2145.22 2630.3,2128.2C2643.53,2107.9 2644.31,2081.59 2622.71,2063.11C2607.66,2050.23 2531.23,1991.84 2531.23,1991.84ZM2519.38,2007.36C2519.38,2007.36 2548,2106.42 2556.4,2119.06C2586.38,2164.2 2642.8,2106 2610.01,2077.94C2595.11,2065.19 2519.38,2007.36 2519.38,2007.36Z" style="fill:rgb(23,96,194);"/>
        </g>
        <g transform="matrix(-0.77749,0.258523,0.258523,0.77749,4528.54,65.3618)">
            <path d="M2519.38,2007.36C2519.38,2007.36 2548,2106.42 2556.4,2119.06C2586.38,2164.2 2642.8,2106 2610.01,2077.94C2595.11,2065.19 2519.38,2007.36 2519.38,2007.36Z" style="fill:rgb(0,165,255);"/>
            <path d="M2500.62,2012.78C2498.28,2004.69 2501.4,1996 2508.36,1991.24C2515.31,1986.49 2524.53,1986.73 2531.23,1991.84C2531.23,1991.84 2607.66,2050.23 2622.71,2063.11C2644.31,2081.59 2643.53,2107.9 2630.3,2128.2C2619.21,2145.22 2599.12,2156.78 2579.21,2155C2565.64,2153.78 2551.44,2146.88 2540.13,2129.87C2531.31,2116.59 2500.62,2012.78 2500.62,2012.78ZM2519.38,2007.36C2519.38,2007.36 2548,2106.42 2556.4,2119.06C2586.38,2164.2 2642.8,2106 2610.01,2077.94C2595.11,2065.19 2519.38,2007.36 2519.38,2007.36Z" style="fill:rgb(23,96,194);"/>
        </g>
    </g>
</svg>
