<?xml version="1.0" encoding="UTF-8" standalone="no"?>
<!DOCTYPE svg PUBLIC "-//W3C//DTD SVG 1.1//EN" "http://www.w3.org/Graphics/SVG/1.1/DTD/svg11.dtd">
<svg width="100%" height="100%" viewBox="0 0 643 643" version="1.1" xmlns="http://www.w3.org/2000/svg" xmlns:xlink="http://www.w3.org/1999/xlink" xml:space="preserve" xmlns:serif="http://www.serif.com/" style="fill-rule:evenodd;clip-rule:evenodd;stroke-linejoin:round;stroke-miterlimit:2;">
    <g transform="matrix(1,0,0,1,-880.253,-2678.92)">
        <g transform="matrix(1,0,0,1,-905.835,1571.09)">
            <g transform="matrix(0.985337,0,0,0.985337,-143.757,1043.26)">
                <circle cx="2284.43" cy="391.386" r="309.625" style="fill:white;"/>
                <path d="M2284.43,65.523C2104.58,65.523 1958.56,211.538 1958.56,391.386C1958.56,571.235 2104.58,717.249 2284.43,717.249C2464.27,717.249 2610.29,571.235 2610.29,391.386C2610.29,211.538 2464.27,65.523 2284.43,65.523ZM2284.43,81.762C2455.31,81.762 2594.05,220.5 2594.05,391.386C2594.05,562.273 2455.31,701.011 2284.43,701.011C2113.54,701.011 1974.8,562.273 1974.8,391.386C1974.8,220.5 2113.54,81.762 2284.43,81.762Z" style="fill:rgb(0,161,181);"/>
            </g>
        </g>
        <g transform="matrix(0.889146,0.0825886,-0.0924872,0.995714,528.756,-33.237)">
            <path d="M1146.85,2914.85C1146.85,2894.16 1128.04,2877.36 1104.87,2877.36L1020.91,2877.36C997.746,2877.36 978.936,2894.16 978.936,2914.85L978.936,3058.27C978.936,3078.96 997.746,3095.76 1020.91,3095.76L1104.87,3095.76C1128.04,3095.76 1146.85,3078.96 1146.85,3058.27L1146.85,2914.85Z" style="fill:rgb(221,221,221);fill-opacity:0.5;"/>
            <path d="M1155.8,2914.85C1155.8,2889.74 1132.98,2869.36 1104.87,2869.36L1020.91,2869.36C992.801,2869.36 969.977,2889.74 969.977,2914.85L969.977,3058.27C969.977,3083.38 992.801,3103.76 1020.91,3103.76L1104.87,3103.76C1132.98,3103.76 1155.8,3083.38 1155.8,3058.27C1155.8,3058.27 1155.8,2914.85 1155.8,2914.85ZM1146.85,2914.85C1146.85,2894.16 1128.04,2877.36 1104.87,2877.36L1020.91,2877.36C997.746,2877.36 978.936,2894.16 978.936,2914.85L978.936,3058.27C978.936,3078.96 997.746,3095.76 1020.91,3095.76L1104.87,3095.76C1128.04,3095.76 1146.85,3078.96 1146.85,3058.27L1146.85,2914.85Z" style="fill:rgb(147,147,147);fill-opacity:0.5;"/>
        </g>
        <g transform="matrix(0.871173,0.196111,-0.219615,0.975587,839.298,-71.3657)">
            <path d="M1146.85,2914.85C1146.85,2894.16 1128.04,2877.36 1104.87,2877.36L1020.91,2877.36C997.746,2877.36 978.936,2894.16 978.936,2914.85L978.936,3058.27C978.936,3078.96 997.746,3095.76 1020.91,3095.76L1104.87,3095.76C1128.04,3095.76 1146.85,3078.96 1146.85,3058.27L1146.85,2914.85Z" style="fill:rgb(238,238,238);"/>
            <path d="M1155.8,2914.85C1155.8,2889.74 1132.98,2869.36 1104.87,2869.36C1104.87,2869.36 1020.91,2869.36 1020.91,2869.36C992.801,2869.36 969.977,2889.74 969.977,2914.85C969.977,2914.85 969.977,3058.27 969.977,3058.27C969.977,3083.38 992.801,3103.76 1020.91,3103.76L1104.87,3103.76C1132.98,3103.76 1155.8,3083.38 1155.8,3058.27C1155.8,3058.27 1155.8,2914.85 1155.8,2914.85ZM1146.85,2914.85C1146.85,2894.16 1128.04,2877.36 1104.87,2877.36L1020.91,2877.36C997.746,2877.36 978.936,2894.16 978.936,2914.85L978.936,3058.27C978.936,3078.96 997.746,3095.76 1020.91,3095.76L1104.87,3095.76C1128.04,3095.76 1146.85,3078.96 1146.85,3058.27L1146.85,2914.85Z" style="fill:rgb(147,147,147);"/>
        </g>
        <g transform="matrix(0.875834,-0.174114,0.194983,0.980807,-338.19,312.936)">
            <path d="M1146.85,2914.85C1146.85,2894.16 1128.04,2877.36 1104.87,2877.36L1020.91,2877.36C997.746,2877.36 978.936,2894.16 978.936,2914.85L978.936,3058.27C978.936,3078.96 997.746,3095.76 1020.91,3095.76L1104.87,3095.76C1128.04,3095.76 1146.85,3078.96 1146.85,3058.27L1146.85,2914.85Z" style="fill:rgb(238,238,238);"/>
            <path d="M1155.8,2914.85C1155.8,2889.74 1132.98,2869.36 1104.87,2869.36L1020.91,2869.36C992.801,2869.36 969.977,2889.74 969.977,2914.85L969.977,3058.27C969.977,3083.38 992.801,3103.76 1020.91,3103.76L1104.87,3103.76C1132.98,3103.76 1155.8,3083.38 1155.8,3058.27C1155.8,3058.27 1155.8,2914.85 1155.8,2914.85ZM1146.85,2914.85C1146.85,2894.16 1128.04,2877.36 1104.87,2877.36L1020.91,2877.36C997.746,2877.36 978.936,2894.16 978.936,2914.85L978.936,3058.27C978.936,3078.96 997.746,3095.76 1020.91,3095.76L1104.87,3095.76C1128.04,3095.76 1146.85,3078.96 1146.85,3058.27L1146.85,2914.85Z" style="fill:rgb(147,147,147);"/>
        </g>
        <g transform="matrix(0.868756,0.206554,-0.231311,0.97288,994.431,-93.6424)">
            <path d="M1146.85,2914.85C1146.85,2894.16 1128.04,2877.36 1104.87,2877.36L1020.91,2877.36C997.746,2877.36 978.936,2894.16 978.936,2914.85L978.936,3058.27C978.936,3078.96 997.746,3095.76 1020.91,3095.76L1104.87,3095.76C1128.04,3095.76 1146.85,3078.96 1146.85,3058.27L1146.85,2914.85Z" style="fill:rgb(221,221,221);"/>
            <path d="M1155.8,2914.85C1155.8,2889.74 1132.98,2869.36 1104.87,2869.36L1020.91,2869.36C992.801,2869.36 969.977,2889.74 969.977,2914.85L969.977,3058.27C969.977,3083.38 992.801,3103.76 1020.91,3103.76L1104.87,3103.76C1132.98,3103.76 1155.8,3083.38 1155.8,3058.27L1155.8,2914.85ZM1146.85,2914.85C1146.85,2894.16 1128.04,2877.36 1104.87,2877.36L1020.91,2877.36C997.746,2877.36 978.936,2894.16 978.936,2914.85L978.936,3058.27C978.936,3078.96 997.746,3095.76 1020.91,3095.76L1104.87,3095.76C1128.04,3095.76 1146.85,3078.96 1146.85,3058.27L1146.85,2914.85Z" style="fill:rgb(147,147,147);"/>
        </g>
        <g transform="matrix(0.887044,-0.102736,0.115049,0.99336,-4.28374,201.676)">
            <path d="M1146.85,2914.85C1146.85,2894.16 1128.04,2877.36 1104.87,2877.36L1020.91,2877.36C997.746,2877.36 978.936,2894.16 978.936,2914.85L978.936,3058.27C978.936,3078.96 997.746,3095.76 1020.91,3095.76L1104.87,3095.76C1128.04,3095.76 1146.85,3078.96 1146.85,3058.27L1146.85,2914.85Z" style="fill:rgb(197,201,203);"/>
            <path d="M1155.8,2914.85C1155.8,2889.74 1132.98,2869.36 1104.87,2869.36C1104.87,2869.36 1020.91,2869.36 1020.91,2869.36C992.801,2869.36 969.977,2889.74 969.977,2914.85C969.977,2914.85 969.977,3058.27 969.977,3058.27C969.977,3083.38 992.801,3103.76 1020.91,3103.76L1104.87,3103.76C1132.98,3103.76 1155.8,3083.38 1155.8,3058.27L1155.8,2914.85ZM1146.85,2914.85C1146.85,2894.16 1128.04,2877.36 1104.87,2877.36L1020.91,2877.36C997.746,2877.36 978.936,2894.16 978.936,2914.85L978.936,3058.27C978.936,3078.96 997.746,3095.76 1020.91,3095.76L1104.87,3095.76C1128.04,3095.76 1146.85,3078.96 1146.85,3058.27L1146.85,2914.85Z" style="fill:rgb(147,147,147);"/>
        </g>
        <g transform="matrix(0.995506,0.0946985,-0.0946985,0.995506,360.65,-469.12)">
            <path d="M1112.18,3227.4C1112.18,3227.4 1121.51,3251.64 1114.11,3252.11C1106.72,3252.58 1065.16,3243.9 1060.36,3231.6C1055.56,3219.31 1079.34,3183.01 1085.32,3178.35C1091.3,3173.7 1102.81,3200.39 1102.81,3200.39C1102.81,3200.39 1126.75,3185.98 1174.06,3184.04C1201.85,3182.9 1222.16,3188.22 1236.51,3196.04C1245.87,3201.13 1240.76,3224.21 1225.96,3219.87C1212.8,3216.01 1201.54,3212.33 1173.98,3213.16C1126.7,3214.6 1112.18,3227.4 1112.18,3227.4Z" style="fill:url(#_Linear1);"/>
        </g>
    </g>
    <defs>
        <linearGradient id="_Linear1" x1="0" y1="0" x2="1" y2="0" gradientUnits="userSpaceOnUse" gradientTransform="matrix(195.362,0,0,73.7575,1060.36,3215.23)"><stop offset="0" style="stop-color:rgb(188,26,77);stop-opacity:1"/><stop offset="1" style="stop-color:rgb(209,111,90);stop-opacity:1"/></linearGradient>
    </defs>
</svg>
