<?xml version="1.0" encoding="UTF-8" standalone="no"?>
<!DOCTYPE svg PUBLIC "-//W3C//DTD SVG 1.1//EN" "http://www.w3.org/Graphics/SVG/1.1/DTD/svg11.dtd">
<svg width="100%" height="100%" viewBox="0 0 643 643" version="1.1" xmlns="http://www.w3.org/2000/svg" xmlns:xlink="http://www.w3.org/1999/xlink" xml:space="preserve" xmlns:serif="http://www.serif.com/" style="fill-rule:evenodd;clip-rule:evenodd;stroke-linecap:round;stroke-linejoin:round;stroke-miterlimit:1.5;">
    <g transform="matrix(1,0,0,1,-73.0234,-987.64)">
        <g transform="matrix(1,0,0,1,-1713.06,-120.187)">
            <g transform="matrix(0.985337,0,0,0.985337,-143.757,1043.26)">
                <circle cx="2284.43" cy="391.386" r="309.625" style="fill:rgb(135,135,135);"/>
                <path d="M2284.43,65.523C2104.58,65.523 1958.56,211.538 1958.56,391.386C1958.56,571.235 2104.58,717.249 2284.43,717.249C2464.27,717.249 2610.29,571.235 2610.29,391.386C2610.29,211.538 2464.27,65.523 2284.43,65.523ZM2284.43,81.762C2455.31,81.762 2594.05,220.5 2594.05,391.386C2594.05,562.273 2455.31,701.011 2284.43,701.011C2113.54,701.011 1974.8,562.273 1974.8,391.386C1974.8,220.5 2113.54,81.762 2284.43,81.762Z" style="fill:rgb(196,196,196);"/>
            </g>
            <g transform="matrix(0.617075,0,0,0.617075,1815.73,558.881)">
                <g transform="matrix(1,0,0,1,-620.282,0)">
                    <path d="M1211.32,1610.19L1154.35,1647.11L1141.36,1647.11C1144.34,1655.25 1146.15,1663.56 1146.15,1671.19L1037.69,1671.19C1037.69,1663.56 1039.51,1655.25 1042.49,1647.11L1030.82,1647.11L973.846,1610.19L895.36,1610.19C900.672,1615.38 905.984,1622.42 910.522,1630.31L910.522,1630.31L910.54,1630.34L910.562,1630.38L910.593,1630.43L910.622,1630.49L910.666,1630.56L910.701,1630.62L910.716,1630.65C910.753,1630.71 910.789,1630.78 910.826,1630.84L910.84,1630.87L910.877,1630.93L910.921,1631.01L910.947,1631.06L910.978,1631.11L911.002,1631.15L911.02,1631.19L911.078,1631.29L911.115,1631.36L911.148,1631.41L911.217,1631.54L911.252,1631.6L911.285,1631.66L911.315,1631.71L911.352,1631.78L911.389,1631.85L911.406,1631.88C911.441,1631.94 911.477,1632.01 911.512,1632.07L911.525,1632.09L911.563,1632.16L911.608,1632.24L911.631,1632.29L911.66,1632.34L911.686,1632.38L911.705,1632.42L911.758,1632.52L911.795,1632.59L911.898,1632.78L911.929,1632.83L911.961,1632.89L911.994,1632.95L912.03,1633.02L912.063,1633.08L912.08,1633.11C912.116,1633.18 912.151,1633.25 912.187,1633.31L912.196,1633.33L912.229,1633.39L912.281,1633.49L912.304,1633.53L912.329,1633.58L912.353,1633.62L912.376,1633.67L912.43,1633.77L912.461,1633.83L912.47,1633.84C912.506,1633.91 912.541,1633.98 912.577,1634.05L912.593,1634.08L912.622,1634.13L912.66,1634.2L912.696,1634.27L912.724,1634.33L912.74,1634.36C912.776,1634.43 912.812,1634.5 912.848,1634.57L912.941,1634.74L912.963,1634.79L912.984,1634.83L913.007,1634.87L913.034,1634.92L913.086,1635.03L913.114,1635.08L913.122,1635.1C913.158,1635.17 913.193,1635.24 913.229,1635.31L913.242,1635.33L913.27,1635.39L913.311,1635.47L913.344,1635.53L913.37,1635.58L913.403,1635.65L913.498,1635.84L913.526,1635.89L913.585,1636.01L913.585,1636.01C916.034,1640.89 918.148,1646 919.764,1651.12L919.764,1651.12L919.782,1651.17L919.796,1651.22L919.808,1651.26C919.831,1651.33 919.853,1651.4 919.876,1651.47L919.931,1651.65L919.949,1651.71L919.961,1651.75L919.972,1651.79L919.986,1651.83L920.043,1652.01L920.052,1652.05L920.095,1652.19L920.111,1652.24L920.123,1652.28L920.133,1652.32L920.148,1652.36L920.202,1652.54L920.254,1652.72L920.27,1652.77L920.28,1652.81L920.291,1652.84L920.307,1652.9L920.358,1653.07L920.41,1653.26L920.425,1653.31L920.434,1653.34L920.444,1653.37L920.462,1653.43L920.504,1653.58L920.511,1653.61C920.533,1653.69 920.555,1653.76 920.576,1653.84L920.585,1653.87L920.594,1653.9L920.613,1653.97L920.652,1654.11L920.66,1654.14C920.681,1654.22 920.703,1654.29 920.724,1654.37L920.731,1654.4L920.741,1654.43L920.76,1654.5L920.796,1654.64L920.808,1654.68L920.839,1654.8L920.856,1654.86L920.874,1654.93L920.905,1655.05C920.919,1655.1 920.933,1655.15 920.948,1655.21L920.978,1655.33L920.996,1655.39L921.013,1655.46L921.043,1655.58C921.058,1655.63 921.072,1655.69 921.086,1655.74L921.114,1655.85L921.137,1655.94C921.165,1656.05 921.193,1656.16 921.22,1656.28L921.246,1656.38L921.268,1656.47C922.501,1661.5 923.195,1666.48 923.195,1671.19L814.73,1671.19C814.73,1650.08 828.648,1623.79 842.566,1610.19L842.566,1303.67C842.566,1289.1 854.394,1277.27 868.963,1277.27L910.447,1277.27L910.447,1262.13L1274.72,1262.13L1274.72,1277.27L1316.2,1277.27C1330.77,1277.27 1342.6,1289.1 1342.6,1303.67L1342.6,1610.19C1356.52,1623.79 1370.43,1650.08 1370.43,1671.19L1261.97,1671.19C1261.97,1650.08 1275.88,1623.79 1289.8,1610.19L1211.32,1610.19ZM910.447,1277.27L1274.72,1277.27C1274.72,1277.27 910.447,1277.27 910.447,1277.27ZM1274.72,1262.13C1274.72,1161.54 1193.17,1080 1092.58,1080C991.991,1080 910.447,1161.54 910.447,1262.13L1274.72,1262.13Z" style="fill:white;stroke:rgb(134,134,134);stroke-width:47px;"/>
                </g>
                <g transform="matrix(2.07362,0,0,2.07362,-2152.21,-1152.87)">
                    <g transform="matrix(6.12323e-17,1,-1,6.12323e-17,2433.5,500.529)">
                        <path d="M664.102,1080C615.593,1080 576.268,1119.33 576.268,1167.83C576.268,1216.34 615.593,1255.67 664.102,1255.67L664.102,1080Z" style="fill:white;"/>
                    </g>
                    <g transform="matrix(0.928216,0,0,0.88612,116.996,134.098)">
                        <rect x="1142.88" y="1171.21" width="189.253" height="181.181" style="fill:white;"/>
                    </g>
                    <g transform="matrix(-0.9013,-1.10377e-16,6.63832e-17,-0.54206,2019.55,2177.79)">
                        <path d="M902.539,1562.21L770.35,1562.21L803.397,1526.6L869.492,1526.6L902.539,1562.21Z" style="fill:white;"/>
                    </g>
                    <g transform="matrix(0.661445,0,0,1,457.188,0)">
                        <path d="M1404.57,1184.66C1404.57,1177.64 1395.95,1171.93 1385.32,1171.93L1366.08,1171.93L1366.08,1332.48L1404.57,1332.48L1404.57,1184.66Z" style="fill:white;"/>
                    </g>
                    <g transform="matrix(-0.661445,0,0,1,2074.14,-3.41116e-13)">
                        <path d="M1404.57,1184.66C1404.57,1177.64 1395.95,1171.93 1385.32,1171.93L1366.08,1171.93L1366.08,1332.48L1404.57,1332.48L1404.57,1184.66Z" style="fill:white;"/>
                    </g>
                    <g transform="matrix(1.00146,0,0,1,401.63,-143.218)">
                        <path d="M781.207,1505.12L728.976,1505.12C728.976,1494.93 735.678,1482.25 742.38,1475.7L767.803,1475.7C774.505,1482.25 781.207,1494.93 781.207,1505.12Z" style="fill:white;"/>
                    </g>
                    <g transform="matrix(1.00146,0,0,1,617.309,-143.218)">
                        <path d="M781.207,1505.12L728.976,1505.12C728.976,1494.93 735.678,1482.25 742.38,1475.7L767.803,1475.7C774.505,1482.25 781.207,1494.93 781.207,1505.12Z" style="fill:white;"/>
                    </g>
                    <g transform="matrix(1.00146,0,0,1,509.152,-143.218)">
                        <path d="M781.207,1505.12L728.976,1505.12C728.976,1494.93 735.678,1482.25 742.38,1475.7L767.803,1475.7C774.505,1482.25 781.207,1494.93 781.207,1505.12Z" style="fill:white;"/>
                    </g>
                    <g transform="matrix(1,0,0,1.03358,4.54747e-13,-39.3519)">
                        <rect x="1177.83" y="1164.87" width="175.668" height="7.063" style="fill:rgb(135,135,135);"/>
                    </g>
                    <g transform="matrix(5.59622e-17,0.913932,-1.03016,6.30791e-17,2377.83,95.4749)">
                        <rect x="1177.83" y="1164.87" width="175.668" height="7.063" style="fill:rgb(135,135,135);"/>
                    </g>
                    <g transform="matrix(1.15482e-17,0.188596,-3.06213,1.87501e-16,4773.65,1072.9)">
                        <rect x="1177.83" y="1164.87" width="175.668" height="7.063" style="fill:rgb(188,188,188);"/>
                    </g>
                    <g transform="matrix(5.59622e-17,0.913932,-1.03016,6.30791e-17,2560.78,95.4749)">
                        <rect x="1177.83" y="1164.87" width="175.668" height="7.063" style="fill:rgb(136,136,136);"/>
                    </g>
                    <g transform="matrix(1,0,0,1,-7.02032,-3.52327)">
                        <path d="M1300.49,1136.95L1244.24,1136.95L1250.28,1101.01L1294.45,1101.01L1300.49,1136.95Z" style="fill:rgb(29,78,189);"/>
                    </g>
                    <g transform="matrix(1,0,0,1,0,-4.09849)">
                        <circle cx="1256.17" cy="1119.55" r="9.496"/>
                    </g>
                    <g transform="matrix(1,0,0,1,54.1851,14.8937)">
                        <circle cx="1256.17" cy="1119.55" r="9.496"/>
                    </g>
                    <g transform="matrix(0.384961,0,0,1.28943,775.463,-334.965)">
                        <rect x="1199.5" y="1143.94" width="37.727" height="13.392" style="fill:rgb(29,78,189);"/>
                    </g>
                    <g transform="matrix(0.899588,0,0,4.48296,169.643,-3889.37)">
                        <rect x="1199.5" y="1143.94" width="37.727" height="13.392" style="fill:rgb(29,78,189);"/>
                    </g>
                    <g transform="matrix(0.449794,0,0,1.15599,717.654,-5.39121)">
                        <rect x="1199.5" y="1143.94" width="37.727" height="13.392" style="fill:rgb(29,78,189);"/>
                    </g>
                    <g transform="matrix(1,0,0,1.28943,56.2503,-334.965)">
                        <rect x="1199.5" y="1143.94" width="37.727" height="13.392" style="fill:rgb(29,78,189);"/>
                    </g>
                    <g transform="matrix(4.14841e-17,0.677486,-1,6.12323e-17,2362.06,319.135)">
                        <rect x="1199.5" y="1143.94" width="37.727" height="13.392" style="fill:rgb(29,78,189);"/>
                    </g>
                    <g transform="matrix(2.74462,0,0,0.597702,-2078.26,488.195)">
                        <rect x="1199.5" y="1143.94" width="37.727" height="13.392" style="fill:rgb(29,78,189);"/>
                    </g>
                    <g transform="matrix(2.74462,0,0,0.597702,-2078.26,510.363)">
                        <rect x="1199.5" y="1143.94" width="37.727" height="13.392" style="fill:rgb(29,78,189);"/>
                    </g>
                    <g transform="matrix(2.74462,0,0,0.597702,-2078.26,527.956)">
                        <rect x="1199.5" y="1143.94" width="37.727" height="13.392" style="fill:rgb(29,78,189);"/>
                    </g>
                    <path d="M1182.32,1352.22C1182.61,1353.13 1182.87,1354.05 1183.09,1354.96L1159.16,1354.96L1159.16,1352.22L1182.32,1352.22ZM1177.87,1342.18C1178.38,1343.08 1178.88,1344 1179.34,1344.93L1159.16,1344.93L1159.16,1342.18L1177.87,1342.18Z" style="fill:rgb(255,19,0);"/>
                    <g transform="matrix(-1,0,0,1,2531.38,-5.55112e-17)">
                        <path d="M1182.32,1352.22C1182.61,1353.13 1182.87,1354.05 1183.09,1354.96L1159.16,1354.96L1159.16,1352.22L1182.32,1352.22ZM1177.87,1342.18C1178.38,1343.08 1178.88,1344 1179.34,1344.93L1159.16,1344.93L1159.16,1342.18L1177.87,1342.18Z" style="fill:rgb(255,19,0);"/>
                    </g>
                    <g transform="matrix(4.14841e-17,0.677486,-1,6.12323e-17,2344.67,319.135)">
                        <rect x="1199.5" y="1143.94" width="37.727" height="13.392" style="fill:rgb(29,78,189);"/>
                    </g>
                    <g transform="matrix(0.38625,0,0,0.38625,801.141,718.212)">
                        <circle cx="1256.17" cy="1119.55" r="9.496" style="fill:rgb(255,19,0);"/>
                    </g>
                    <g transform="matrix(0.5,0,0,0.5,637.58,764.963)">
                        <circle cx="1256.17" cy="1119.55" r="9.496" style="fill:rgb(188,188,188);"/>
                    </g>
                    <g transform="matrix(0.876144,0,0,0.934052,159,88.2839)">
                        <path d="M1277.52,1243.21C1277.52,1239.84 1274.6,1237.1 1271,1237.1L1255.22,1237.1C1251.62,1237.1 1248.69,1239.84 1248.69,1243.21L1248.69,1255.45C1248.69,1258.82 1251.62,1261.57 1255.22,1261.57L1271,1261.57C1274.6,1261.57 1277.52,1258.82 1277.52,1255.45L1277.52,1243.21Z" style="fill:rgb(188,188,188);"/>
                    </g>
                    <g transform="matrix(0.876144,0,0,0.934052,159,115.937)">
                        <path d="M1277.52,1243.21C1277.52,1239.84 1274.6,1237.1 1271,1237.1L1255.22,1237.1C1251.62,1237.1 1248.69,1239.84 1248.69,1243.21L1248.69,1255.45C1248.69,1258.82 1251.62,1261.57 1255.22,1261.57L1271,1261.57C1274.6,1261.57 1277.52,1258.82 1277.52,1255.45L1277.52,1243.21Z" style="fill:rgb(188,188,188);"/>
                    </g>
                </g>
            </g>
        </g>
    </g>
</svg>
