<?xml version="1.0" encoding="UTF-8" standalone="no"?>
<!DOCTYPE svg PUBLIC "-//W3C//DTD SVG 1.1//EN" "http://www.w3.org/Graphics/SVG/1.1/DTD/svg11.dtd">
<svg width="100%" height="100%" viewBox="0 0 519 615" version="1.1" xmlns="http://www.w3.org/2000/svg" xmlns:xlink="http://www.w3.org/1999/xlink" xml:space="preserve" xmlns:serif="http://www.serif.com/" style="fill-rule:evenodd;clip-rule:evenodd;stroke-linecap:round;stroke-linejoin:round;stroke-miterlimit:1.5;">
    <g transform="matrix(1,0,0,1,-763.146,-99.0976)">
        <g transform="matrix(0.853398,0,0,0.853398,-1838.14,16.1395)">
            <circle cx="3351.65" cy="597.199" r="205.324" style="fill:rgb(187,187,187);stroke:rgb(140,140,140);stroke-width:29.29px;"/>
        </g>
        <g transform="matrix(-1.02245,0,0,0.860723,1825,-154.243)">
            <path d="M1038.54,294.335L884.855,294.335L709.916,561.736L863.6,561.736L1038.54,294.335Z" style="fill:rgb(213,119,109);"/>
        </g>
        <g transform="matrix(1.23429,0,0,0.615218,120.371,-47.7733)">
            <path d="M657.084,678.02L657.084,593.138L804.12,593.138L804.12,678.02" style="fill:none;stroke:rgb(140,140,140);stroke-width:25.64px;"/>
        </g>
        <g transform="matrix(1.02245,0,0,0.860723,219.783,-154.243)">
            <path d="M1038.54,294.335L884.855,294.335L709.916,561.736L863.6,561.736L1038.54,294.335Z" style="fill:rgb(196,78,65);"/>
        </g>
        <g transform="matrix(144.213,0,0,144.213,979.678,577.705)">
            <path d="M0.284,0.015C0.248,0.015 0.214,0.008 0.182,-0.008C0.15,-0.023 0.123,-0.043 0.1,-0.07C0.077,-0.097 0.06,-0.128 0.05,-0.163L0.181,-0.198C0.185,-0.181 0.193,-0.166 0.204,-0.154C0.215,-0.142 0.228,-0.132 0.243,-0.125C0.258,-0.118 0.273,-0.115 0.289,-0.115C0.31,-0.115 0.329,-0.12 0.346,-0.13C0.363,-0.14 0.377,-0.154 0.387,-0.171C0.397,-0.188 0.402,-0.206 0.402,-0.227C0.402,-0.248 0.397,-0.267 0.387,-0.284C0.377,-0.301 0.363,-0.314 0.346,-0.324C0.329,-0.334 0.31,-0.339 0.289,-0.339C0.264,-0.339 0.243,-0.335 0.227,-0.326C0.211,-0.318 0.199,-0.31 0.191,-0.302L0.076,-0.337L0.098,-0.72L0.491,-0.72L0.491,-0.593L0.173,-0.593L0.221,-0.638L0.206,-0.391L0.183,-0.419C0.201,-0.434 0.222,-0.444 0.245,-0.451C0.268,-0.458 0.289,-0.461 0.309,-0.461C0.354,-0.461 0.394,-0.451 0.429,-0.431C0.463,-0.411 0.49,-0.383 0.51,-0.348C0.529,-0.313 0.539,-0.272 0.539,-0.227C0.539,-0.182 0.527,-0.141 0.504,-0.104C0.48,-0.068 0.449,-0.039 0.41,-0.017C0.371,0.004 0.329,0.015 0.284,0.015Z" style="fill-opacity:0.5;fill-rule:nonzero;"/>
        </g>
    </g>
</svg>
