<?xml version="1.0" encoding="UTF-8" standalone="no"?>
<!DOCTYPE svg PUBLIC "-//W3C//DTD SVG 1.1//EN" "http://www.w3.org/Graphics/SVG/1.1/DTD/svg11.dtd">
<svg width="100%" height="100%" viewBox="0 0 643 643" version="1.1" xmlns="http://www.w3.org/2000/svg" xmlns:xlink="http://www.w3.org/1999/xlink" xml:space="preserve" xmlns:serif="http://www.serif.com/" style="fill-rule:evenodd;clip-rule:evenodd;stroke-linecap:square;stroke-linejoin:round;stroke-miterlimit:1.5;">
    <g transform="matrix(1,0,0,1,-73.0234,-1833.27)">
        <g transform="matrix(1,0,0,1,-1713.06,725.443)">
            <g transform="matrix(0.985337,0,0,0.985337,-143.757,1043.26)">
                <circle cx="2284.43" cy="391.386" r="309.625" style="fill:rgb(80,187,166);"/>
                <path d="M2284.43,65.523C2104.58,65.523 1958.56,211.538 1958.56,391.386C1958.56,571.235 2104.58,717.249 2284.43,717.249C2464.27,717.249 2610.29,571.235 2610.29,391.386C2610.29,211.538 2464.27,65.523 2284.43,65.523ZM2284.43,81.762C2455.31,81.762 2594.05,220.5 2594.05,391.386C2594.05,562.273 2455.31,701.011 2284.43,701.011C2113.54,701.011 1974.8,562.273 1974.8,391.386C1974.8,220.5 2113.54,81.762 2284.43,81.762Z" style="fill:rgb(29,67,59);"/>
            </g>
        </g>
        <g transform="matrix(0.835797,0,0,0.835797,64.899,356.619)">
            <g transform="matrix(1,0,0,1,0,2.25066)">
                <path d="M334.715,2225.48C334.715,2225.48 341.161,2185.95 301.097,2132.15C234.367,2042.53 282.378,1931.48 394.108,1931.48C505.839,1931.48 553.273,2042.53 486.542,2132.15C446.478,2185.95 452.924,2225.48 452.924,2225.48" style="fill:rgb(243,219,167);stroke:rgb(73,73,73);stroke-width:19.14px;"/>
            </g>
            <g transform="matrix(0.416174,0,0,0.515594,243.084,1107.77)">
                <path d="M504.213,2206.59C504.213,2196.49 494.055,2188.29 481.543,2188.29L244.233,2188.29C231.721,2188.29 221.563,2196.49 221.563,2206.59C221.563,2216.69 231.721,2224.89 244.233,2224.89L481.543,2224.89C494.055,2224.89 504.213,2216.69 504.213,2206.59Z" style="fill:rgb(159,159,159);"/>
                <path d="M550.211,2206.59C550.211,2176 519.442,2151.16 481.543,2151.16L244.233,2151.16C206.334,2151.16 175.565,2176 175.565,2206.59C175.565,2237.18 206.334,2262.01 244.233,2262.01L481.543,2262.01C519.442,2262.01 550.211,2237.18 550.211,2206.59ZM504.213,2206.59C504.213,2196.49 494.055,2188.29 481.543,2188.29L244.233,2188.29C231.721,2188.29 221.563,2196.49 221.563,2206.59C221.563,2216.69 231.721,2224.89 244.233,2224.89L481.543,2224.89C494.055,2224.89 504.213,2216.69 504.213,2206.59Z" style="fill:rgb(73,73,73);"/>
            </g>
            <g transform="matrix(0.416174,0,0,0.515594,243.084,1142.7)">
                <path d="M504.213,2206.59C504.213,2196.49 494.055,2188.29 481.543,2188.29L244.233,2188.29C231.721,2188.29 221.563,2196.49 221.563,2206.59C221.563,2216.69 231.721,2224.89 244.233,2224.89L481.543,2224.89C494.055,2224.89 504.213,2216.69 504.213,2206.59Z" style="fill:rgb(159,159,159);"/>
                <path d="M550.211,2206.59C550.211,2176 519.442,2151.16 481.543,2151.16C481.543,2151.16 244.233,2151.16 244.233,2151.16C206.334,2151.16 175.565,2176 175.565,2206.59C175.565,2237.18 206.334,2262.01 244.233,2262.01L481.543,2262.01C519.442,2262.01 550.211,2237.18 550.211,2206.59ZM504.213,2206.59C504.213,2196.49 494.055,2188.29 481.543,2188.29L244.233,2188.29C231.721,2188.29 221.563,2196.49 221.563,2206.59C221.563,2216.69 231.721,2224.89 244.233,2224.89L481.543,2224.89C494.055,2224.89 504.213,2216.69 504.213,2206.59Z" style="fill:rgb(73,73,73);"/>
            </g>
            <g transform="matrix(0.416174,0,0,0.515594,243.084,1176.64)">
                <path d="M504.213,2206.59C504.213,2196.49 494.055,2188.29 481.543,2188.29L244.233,2188.29C231.721,2188.29 221.563,2196.49 221.563,2206.59C221.563,2216.69 231.721,2224.89 244.233,2224.89L481.543,2224.89C494.055,2224.89 504.213,2216.69 504.213,2206.59Z" style="fill:rgb(159,159,159);"/>
                <path d="M550.211,2206.59C550.211,2176 519.442,2151.16 481.543,2151.16C481.543,2151.16 244.233,2151.16 244.233,2151.16C206.334,2151.16 175.565,2176 175.565,2206.59C175.565,2237.18 206.334,2262.01 244.233,2262.01C244.233,2262.01 481.543,2262.01 481.543,2262.01C519.442,2262.01 550.211,2237.18 550.211,2206.59ZM504.213,2206.59C504.213,2196.49 494.055,2188.29 481.543,2188.29L244.233,2188.29C231.721,2188.29 221.563,2196.49 221.563,2206.59C221.563,2216.69 231.721,2224.89 244.233,2224.89L481.543,2224.89C494.055,2224.89 504.213,2216.69 504.213,2206.59Z" style="fill:rgb(73,73,73);"/>
            </g>
            <g transform="matrix(6.12323e-17,-1,1,6.12323e-17,-1946.74,2721.04)">
                <path d="M381.16,2312.61C365.563,2312.61 352.92,2325.26 352.92,2340.85C352.92,2356.45 365.563,2369.09 381.16,2369.09L381.16,2312.61Z" style="fill:rgb(159,159,159);"/>
                <path d="M400.303,2312.61C400.303,2302.04 391.732,2293.47 381.16,2293.47C354.99,2293.47 333.776,2314.68 333.776,2340.85C333.776,2367.02 354.99,2388.24 381.16,2388.24C391.732,2388.24 400.303,2379.66 400.303,2369.09L400.303,2312.61ZM381.16,2312.61C365.563,2312.61 352.92,2325.26 352.92,2340.85C352.92,2356.45 365.563,2369.09 381.16,2369.09L381.16,2312.61Z" style="fill:rgb(73,73,73);"/>
            </g>
            <g transform="matrix(0.749325,0,0,0.749325,98.751,557.871)">
                <path d="M373.475,2220.52L373.475,2099.07C373.475,2099.07 324.973,2102.5 348.992,2126.52C355.668,2133.2 403.811,2130.04 431.204,2130.17C458.598,2130.3 445.286,2089.86 413.357,2099.11L413.357,2222.95" style="fill:none;stroke:rgb(73,73,73);stroke-width:12.77px;"/>
            </g>
        </g>
    </g>
</svg>
