<?xml version="1.0" encoding="UTF-8" standalone="no"?>
<!DOCTYPE svg PUBLIC "-//W3C//DTD SVG 1.1//EN" "http://www.w3.org/Graphics/SVG/1.1/DTD/svg11.dtd">
<svg width="100%" height="100%" viewBox="0 0 447 633" version="1.1" xmlns="http://www.w3.org/2000/svg" xmlns:xlink="http://www.w3.org/1999/xlink" xml:space="preserve" xmlns:serif="http://www.serif.com/" style="fill-rule:evenodd;clip-rule:evenodd;stroke-linecap:round;stroke-linejoin:round;stroke-miterlimit:1.5;">
    <g transform="matrix(1,0,0,1,-2967.93,-84.8414)">
        <g transform="matrix(0.823641,0,0,0.823641,664.853,-298.533)">
            <path d="M2860.81,546.129L2860.81,521.446C2860.8,508.535 2860.1,490.32 2869.23,481.189C2878.36,472.059 2896.57,472.76 2909.48,472.76C2987.72,472.76 3140.56,472.76 3218.8,472.76C3231.71,472.76 3244.1,477.89 3253.22,487.021C3262.35,496.152 3267.48,508.535 3267.48,521.446L3267.47,536.056C3316.49,531.397 3335.99,565.169 3329.99,610.219C3324.28,653.125 3297.01,665.757 3261.63,703.262C3246.22,784.792 3200.85,858.522 3133.21,909.082L3102.81,931.805L3102.81,1068.26L3177.49,1068.26C3199.31,1068.26 3217.02,1085.97 3217.02,1107.79L3217.02,1169.4L3245.78,1169.4C3253.64,1169.4 3260.02,1175.78 3260.02,1183.64L3260.02,1212.12C3260.02,1219.98 3253.64,1226.36 3245.78,1226.36L2888.77,1226.36C2880.91,1226.36 2874.53,1219.98 2874.53,1212.12L2874.53,1183.64C2874.53,1175.78 2880.91,1169.4 2888.77,1169.4L2917.52,1169.4L2917.52,1107.79C2917.52,1085.97 2935.24,1068.26 2957.05,1068.26L3031.74,1068.26L3031.74,933.283L2998.34,908.946C2925.32,855.729 2877.51,775.72 2864.45,687.682C2832.43,655.01 2810.09,646.236 2804.56,604.658C2798.81,561.463 2816.21,542.02 2860.81,546.129ZM3261.22,583.22C3261.22,583.22 3285.97,576.437 3288.95,586.443C3297.11,613.877 3257.94,653.408 3258.4,648.209C3261.9,608.967 3261.22,583.22 3261.22,583.22ZM2871.43,583.22C2871.43,583.22 2846.68,576.437 2843.71,586.443C2835.54,613.877 2874.72,653.408 2874.26,648.209C2870.76,608.967 2871.43,583.22 2871.43,583.22Z" style="fill:rgb(255,178,15);stroke:rgb(214,139,9);stroke-width:14.57px;"/>
        </g>
        <g transform="matrix(0.207545,0,0,0.207545,2583.85,84.4862)">
            <path d="M2579.15,959.49C2599.69,959.49 2626,1028.44 2626,1028.44C2626,1028.44 2699.68,1032.06 2706.06,1051.69C2712.41,1071.23 2654.95,1117.56 2654.95,1117.56C2654.95,1117.56 2674.28,1188.75 2657.58,1200.88C2640.96,1212.95 2579.15,1172.63 2579.15,1172.63C2579.15,1172.63 2517.42,1213.01 2500.72,1200.88C2484.1,1188.81 2503.35,1117.56 2503.35,1117.56C2503.35,1117.56 2445.87,1071.33 2452.24,1051.69C2458.59,1032.15 2532.3,1028.44 2532.3,1028.44C2532.3,1028.44 2558.51,959.49 2579.15,959.49Z" style="fill:rgb(214,139,9);"/>
        </g>
        <g transform="matrix(0.207545,0,0,0.207545,2657.15,84.4862)">
            <path d="M2579.15,959.49C2599.69,959.49 2626,1028.44 2626,1028.44C2626,1028.44 2699.68,1032.06 2706.06,1051.69C2712.41,1071.23 2654.95,1117.56 2654.95,1117.56C2654.95,1117.56 2674.28,1188.75 2657.58,1200.88C2640.96,1212.95 2579.15,1172.63 2579.15,1172.63C2579.15,1172.63 2517.42,1213.01 2500.72,1200.88C2484.1,1188.81 2503.35,1117.56 2503.35,1117.56C2503.35,1117.56 2445.87,1071.33 2452.24,1051.69C2458.59,1032.15 2532.3,1028.44 2532.3,1028.44C2532.3,1028.44 2558.51,959.49 2579.15,959.49Z" style="fill:rgb(214,139,9);"/>
        </g>
        <g transform="matrix(0.207545,0,0,0.207545,2727.94,84.4862)">
            <path d="M2579.15,959.49C2599.69,959.49 2626,1028.44 2626,1028.44C2626,1028.44 2699.68,1032.06 2706.06,1051.69C2712.41,1071.23 2654.95,1117.56 2654.95,1117.56C2654.95,1117.56 2674.28,1188.75 2657.58,1200.88C2640.96,1212.95 2579.15,1172.63 2579.15,1172.63C2579.15,1172.63 2517.42,1213.01 2500.72,1200.88C2484.1,1188.81 2503.35,1117.56 2503.35,1117.56C2503.35,1117.56 2445.87,1071.33 2452.24,1051.69C2458.59,1032.15 2532.3,1028.44 2532.3,1028.44C2532.3,1028.44 2558.51,959.49 2579.15,959.49Z" style="fill:rgb(214,139,9);"/>
        </g>
        <g transform="matrix(91.4737,0,0,91.4737,3078.4,253.594)">
            <path d="M0.195,0L0.195,-0.572L0.06,-0.489L0.06,-0.639L0.195,-0.72L0.334,-0.72L0.334,0L0.195,0Z" style="fill-opacity:0.5;fill-rule:nonzero;"/>
        </g>
        <g transform="matrix(91.4737,0,0,91.4737,3119.92,253.594)">
            <path d="M0.337,0.015C0.284,0.015 0.237,0.004 0.197,-0.019C0.157,-0.041 0.126,-0.072 0.104,-0.112C0.081,-0.152 0.07,-0.199 0.07,-0.252L0.07,-0.468C0.07,-0.521 0.081,-0.568 0.104,-0.608C0.126,-0.648 0.157,-0.679 0.197,-0.702C0.237,-0.724 0.284,-0.735 0.337,-0.735C0.39,-0.735 0.437,-0.724 0.477,-0.702C0.517,-0.679 0.548,-0.648 0.571,-0.608C0.593,-0.568 0.604,-0.521 0.604,-0.468L0.604,-0.252C0.604,-0.199 0.593,-0.152 0.571,-0.112C0.548,-0.072 0.517,-0.041 0.477,-0.019C0.437,0.004 0.39,0.015 0.337,0.015ZM0.337,-0.114C0.361,-0.114 0.383,-0.12 0.402,-0.131C0.421,-0.142 0.437,-0.158 0.448,-0.177C0.459,-0.196 0.465,-0.218 0.465,-0.242L0.465,-0.479C0.465,-0.503 0.459,-0.525 0.448,-0.544C0.437,-0.563 0.421,-0.579 0.402,-0.59C0.383,-0.601 0.361,-0.607 0.337,-0.607C0.313,-0.607 0.291,-0.601 0.272,-0.59C0.253,-0.579 0.237,-0.563 0.226,-0.544C0.215,-0.525 0.209,-0.503 0.209,-0.479L0.209,-0.242C0.209,-0.218 0.215,-0.196 0.226,-0.177C0.237,-0.158 0.253,-0.142 0.272,-0.131C0.291,-0.12 0.313,-0.114 0.337,-0.114Z" style="fill-opacity:0.5;fill-rule:nonzero;"/>
        </g>
        <g transform="matrix(91.4737,0,0,91.4737,3181.58,253.594)">
            <path d="M0.337,0.015C0.284,0.015 0.237,0.004 0.197,-0.019C0.157,-0.041 0.126,-0.072 0.104,-0.112C0.081,-0.152 0.07,-0.199 0.07,-0.252L0.07,-0.468C0.07,-0.521 0.081,-0.568 0.104,-0.608C0.126,-0.648 0.157,-0.679 0.197,-0.702C0.237,-0.724 0.284,-0.735 0.337,-0.735C0.39,-0.735 0.437,-0.724 0.477,-0.702C0.517,-0.679 0.548,-0.648 0.571,-0.608C0.593,-0.568 0.604,-0.521 0.604,-0.468L0.604,-0.252C0.604,-0.199 0.593,-0.152 0.571,-0.112C0.548,-0.072 0.517,-0.041 0.477,-0.019C0.437,0.004 0.39,0.015 0.337,0.015ZM0.337,-0.114C0.361,-0.114 0.383,-0.12 0.402,-0.131C0.421,-0.142 0.437,-0.158 0.448,-0.177C0.459,-0.196 0.465,-0.218 0.465,-0.242L0.465,-0.479C0.465,-0.503 0.459,-0.525 0.448,-0.544C0.437,-0.563 0.421,-0.579 0.402,-0.59C0.383,-0.601 0.361,-0.607 0.337,-0.607C0.313,-0.607 0.291,-0.601 0.272,-0.59C0.253,-0.579 0.237,-0.563 0.226,-0.544C0.215,-0.525 0.209,-0.503 0.209,-0.479L0.209,-0.242C0.209,-0.218 0.215,-0.196 0.226,-0.177C0.237,-0.158 0.253,-0.142 0.272,-0.131C0.291,-0.12 0.313,-0.114 0.337,-0.114Z" style="fill-opacity:0.5;fill-rule:nonzero;"/>
        </g>
        <g transform="matrix(91.4737,0,0,91.4737,3243.23,253.594)">
            <path d="M0.337,0.015C0.284,0.015 0.237,0.004 0.197,-0.019C0.157,-0.041 0.126,-0.072 0.104,-0.112C0.081,-0.152 0.07,-0.199 0.07,-0.252L0.07,-0.468C0.07,-0.521 0.081,-0.568 0.104,-0.608C0.126,-0.648 0.157,-0.679 0.197,-0.702C0.237,-0.724 0.284,-0.735 0.337,-0.735C0.39,-0.735 0.437,-0.724 0.477,-0.702C0.517,-0.679 0.548,-0.648 0.571,-0.608C0.593,-0.568 0.604,-0.521 0.604,-0.468L0.604,-0.252C0.604,-0.199 0.593,-0.152 0.571,-0.112C0.548,-0.072 0.517,-0.041 0.477,-0.019C0.437,0.004 0.39,0.015 0.337,0.015ZM0.337,-0.114C0.361,-0.114 0.383,-0.12 0.402,-0.131C0.421,-0.142 0.437,-0.158 0.448,-0.177C0.459,-0.196 0.465,-0.218 0.465,-0.242L0.465,-0.479C0.465,-0.503 0.459,-0.525 0.448,-0.544C0.437,-0.563 0.421,-0.579 0.402,-0.59C0.383,-0.601 0.361,-0.607 0.337,-0.607C0.313,-0.607 0.291,-0.601 0.272,-0.59C0.253,-0.579 0.237,-0.563 0.226,-0.544C0.215,-0.525 0.209,-0.503 0.209,-0.479L0.209,-0.242C0.209,-0.218 0.215,-0.196 0.226,-0.177C0.237,-0.158 0.253,-0.142 0.272,-0.131C0.291,-0.12 0.313,-0.114 0.337,-0.114Z" style="fill-opacity:0.5;fill-rule:nonzero;"/>
        </g>
    </g>
</svg>
