<?xml version="1.0" encoding="UTF-8" standalone="no"?>
<!DOCTYPE svg PUBLIC "-//W3C//DTD SVG 1.1//EN" "http://www.w3.org/Graphics/SVG/1.1/DTD/svg11.dtd">
<svg width="100%" height="100%" viewBox="0 0 643 643" version="1.1" xmlns="http://www.w3.org/2000/svg" xmlns:xlink="http://www.w3.org/1999/xlink" xml:space="preserve" xmlns:serif="http://www.serif.com/" style="fill-rule:evenodd;clip-rule:evenodd;stroke-linecap:round;stroke-linejoin:round;stroke-miterlimit:1.5;">
    <g transform="matrix(1,0,0,1,-1075.87,-3466.75)">
        <g transform="matrix(1,0,0,1,-710.219,2358.92)">
            <g transform="matrix(0.985337,0,0,0.985337,-143.757,1043.26)">
                <circle cx="2284.43" cy="391.386" r="309.625" style="fill:rgb(247,247,247);"/>
                <path d="M2284.43,65.523C2104.58,65.523 1958.56,211.538 1958.56,391.386C1958.56,571.235 2104.58,717.249 2284.43,717.249C2464.27,717.249 2610.29,571.235 2610.29,391.386C2610.29,211.538 2464.27,65.523 2284.43,65.523ZM2284.43,81.762C2455.31,81.762 2594.05,220.5 2594.05,391.386C2594.05,562.273 2455.31,701.011 2284.43,701.011C2113.54,701.011 1974.8,562.273 1974.8,391.386C1974.8,220.5 2113.54,81.762 2284.43,81.762Z" style="fill:rgb(214,139,9);"/>
            </g>
        </g>
        <g transform="matrix(1,0,0,1,-352.078,-514.655)">
            <path d="M2020.36,4442.12C1969.7,4540.38 1867.21,4607.57 1749.03,4607.57C1630.85,4607.57 1528.36,4540.38 1477.7,4442.12L2020.36,4442.12Z" style="fill:rgb(207,187,160);"/>
        </g>
        <g transform="matrix(0.896641,0,0,1.00033,119.351,-29.5808)">
            <path d="M1628.02,3629.77C1628.02,3623.94 1622.74,3619.2 1616.24,3619.2L1450.57,3619.2C1444.07,3619.2 1438.78,3623.94 1438.78,3629.77L1438.78,3805.59C1438.78,3811.42 1444.07,3816.16 1450.57,3816.16L1616.24,3816.16C1622.74,3816.16 1628.02,3811.42 1628.02,3805.59L1628.02,3629.77Z" style="fill:rgb(87,206,255);"/>
            <path d="M1636.94,3629.77C1636.94,3619.52 1627.66,3611.21 1616.24,3611.21L1450.57,3611.21C1439.14,3611.21 1429.86,3619.52 1429.86,3629.77C1429.86,3629.77 1429.86,3805.59 1429.86,3805.59C1429.86,3815.84 1439.14,3824.15 1450.57,3824.15C1450.57,3824.15 1616.24,3824.15 1616.24,3824.15C1627.66,3824.15 1636.94,3815.84 1636.94,3805.59L1636.94,3629.77ZM1628.02,3629.77C1628.02,3623.94 1622.74,3619.2 1616.24,3619.2L1450.57,3619.2C1444.07,3619.2 1438.78,3623.94 1438.78,3629.77L1438.78,3805.59C1438.78,3811.42 1444.07,3816.16 1450.57,3816.16L1616.24,3816.16C1622.74,3816.16 1628.02,3811.42 1628.02,3805.59L1628.02,3629.77Z" style="fill:rgb(100,100,100);"/>
        </g>
        <g transform="matrix(0.756539,0,0,0.71868,266.9,1188.96)">
            <path d="M1475.7,3710.98C1475.7,3701.86 1468.66,3694.45 1460,3694.45L1272.62,3694.45C1263.95,3694.45 1256.92,3701.86 1256.92,3710.98L1256.92,3822.2C1256.92,3831.32 1263.95,3838.73 1272.62,3838.73L1460,3838.73C1468.66,3838.73 1475.7,3831.32 1475.7,3822.2L1475.7,3710.98Z" style="fill:white;"/>
            <path d="M1486.27,3710.98C1486.27,3695.71 1474.5,3683.32 1460,3683.32L1272.62,3683.32C1258.12,3683.32 1246.34,3695.71 1246.34,3710.98L1246.34,3822.2C1246.34,3837.46 1258.12,3849.86 1272.62,3849.86L1460,3849.86C1474.5,3849.86 1486.27,3837.46 1486.27,3822.2L1486.27,3710.98ZM1475.7,3710.98C1475.7,3701.86 1468.66,3694.45 1460,3694.45L1272.62,3694.45C1263.95,3694.45 1256.92,3701.86 1256.92,3710.98L1256.92,3822.2C1256.92,3831.32 1263.95,3838.73 1272.62,3838.73L1460,3838.73C1468.66,3838.73 1475.7,3831.32 1475.7,3822.2L1475.7,3710.98Z" style="fill:rgb(100,100,100);"/>
        </g>
        <g transform="matrix(1,0,0,1,4.93001,39.4454)">
            <path d="M1276.91,3936.33L1314.35,3936.33" style="fill:none;stroke:rgb(100,100,100);stroke-width:8px;"/>
        </g>
        <g transform="matrix(3.7087e-17,-0.605676,0.605676,3.7087e-17,-1083.58,4749.17)">
            <path d="M1276.91,3936.33L1314.35,3936.33" style="fill:none;stroke:rgb(100,100,100);stroke-width:13.21px;"/>
        </g>
        <g transform="matrix(1.14144,0,0,0.76714,-224.894,856.547)">
            <path d="M1428.96,3692.65L1583.31,3692.65" style="fill:none;stroke:rgb(100,100,100);stroke-width:8.23px;"/>
        </g>
        <g transform="matrix(1.1613e-16,1.27464,-1.89655,7.8049e-17,8497.56,1769.69)">
            <path d="M1428.96,3692.65L1583.31,3692.65" style="fill:none;stroke:rgb(100,100,100);stroke-width:4.95px;"/>
        </g>
        <g transform="matrix(1,0,0,1,1.95264,-15.4282)">
            <circle cx="1538.66" cy="3645.34" r="23.636" style="fill:rgb(255,196,0);"/>
        </g>
        <g transform="matrix(1,0,0,1,1.61594,-4.25997)">
            <rect x="1227.21" y="3886.64" width="18.549" height="27.093" style="fill:rgb(145,157,187);fill-opacity:0.16;"/>
        </g>
        <g transform="matrix(1,0,0,1,25.4833,27.2785)">
            <rect x="1227.21" y="3886.64" width="18.549" height="27.093" style="fill:rgb(145,157,187);fill-opacity:0.16;"/>
        </g>
        <g transform="matrix(1,0,0,1,25.4835,-4.25997)">
            <rect x="1227.21" y="3886.64" width="18.549" height="27.093" style="fill:rgb(145,168,187);fill-opacity:0.16;"/>
        </g>
        <g transform="matrix(1,0,0,1,49.3508,27.2785)">
            <rect x="1227.21" y="3886.64" width="18.549" height="27.093" style="fill:rgb(145,168,187);fill-opacity:0.16;"/>
        </g>
        <g transform="matrix(1,0,0,1,49.351,-4.25997)">
            <rect x="1227.21" y="3886.64" width="18.549" height="27.093" style="fill:rgb(156,145,187);fill-opacity:0.16;"/>
        </g>
        <g transform="matrix(1,0,0,1,73.2183,27.2785)">
            <rect x="1227.21" y="3886.64" width="18.549" height="27.093" style="fill:rgb(156,145,187);fill-opacity:0.16;"/>
        </g>
        <g transform="matrix(1,0,0,1,73.2185,-4.25997)">
            <rect x="1227.21" y="3886.64" width="18.549" height="27.093" style="fill:rgb(187,145,148);fill-opacity:0.16;"/>
        </g>
        <g transform="matrix(1,0,0,1,97.0859,27.2785)">
            <rect x="1227.21" y="3886.64" width="18.549" height="27.093" style="fill:rgb(187,145,148);fill-opacity:0.16;"/>
        </g>
        <g transform="matrix(1,0,0,1,97.0861,-4.25997)">
            <rect x="1227.21" y="3886.64" width="18.549" height="27.093" style="fill:rgb(151,187,145);fill-opacity:0.16;"/>
        </g>
        <g transform="matrix(1,0,0,1,1.61594,27.2785)">
            <rect x="1227.21" y="3886.64" width="18.549" height="27.093" style="fill:rgb(151,187,145);fill-opacity:0.16;"/>
        </g>
        <g transform="matrix(1,0,0,1,120.953,27.2785)">
            <rect x="1227.21" y="3886.64" width="18.549" height="27.093" style="fill:rgb(151,187,145);fill-opacity:0.16;"/>
        </g>
        <g transform="matrix(1,0,0,1,120.954,-4.25997)">
            <rect x="1227.21" y="3886.64" width="18.549" height="27.093" style="fill:rgb(157,157,157);fill-opacity:0.16;"/>
        </g>
        <g transform="matrix(1,0,0,1,-4.54747e-13,-5.42572)">
            <rect x="1372.04" y="3887.81" width="11.286" height="27.093" style="fill:rgb(145,157,187);fill-opacity:0.16;"/>
        </g>
        <g transform="matrix(1,0,0,1,18.5493,193.448)">
            <path d="M1364.77,3720.47L1364.77,3742.45C1364.77,3744.28 1364.36,3746.02 1363.62,3747.57L1353.49,3747.57L1353.49,3720.47L1364.77,3720.47Z" style="fill:rgb(156,145,187);fill-opacity:0.16;"/>
        </g>
        <g transform="matrix(1,0,0,1,-3.25341,1.17391)">
            <text x="1231.06px" y="3867.72px" style="font-family:'IBMPlexSansCond-SemiBold', 'IBM Plex Sans Condensed SemiBold', sans-serif;font-weight:600;font-stretch:condensed;font-size:14px;fill:rgb(217,45,60);">MO<tspan x="1250.07px " y="3867.72px ">V</tspan>IES</text>
        </g>
    </g>
</svg>
