<?xml version="1.0" encoding="UTF-8" standalone="no"?>
<!DOCTYPE svg PUBLIC "-//W3C//DTD SVG 1.1//EN" "http://www.w3.org/Graphics/SVG/1.1/DTD/svg11.dtd">
<svg width="100%" height="100%" viewBox="0 0 643 643" version="1.1" xmlns="http://www.w3.org/2000/svg" xmlns:xlink="http://www.w3.org/1999/xlink" xml:space="preserve" xmlns:serif="http://www.serif.com/" style="fill-rule:evenodd;clip-rule:evenodd;stroke-linecap:square;stroke-linejoin:round;stroke-miterlimit:1.5;">
    <g transform="matrix(1,0,0,1,-775.45,-1833.27)">
        <g transform="matrix(1,0,0,1,-1010.64,725.443)">
            <g transform="matrix(0.985337,0,0,0.985337,-143.757,1043.26)">
                <circle cx="2284.43" cy="391.386" r="309.625" style="fill:rgb(254,191,130);"/>
                <path d="M2284.43,65.523C2104.58,65.523 1958.56,211.538 1958.56,391.386C1958.56,571.235 2104.58,717.249 2284.43,717.249C2464.27,717.249 2610.29,571.235 2610.29,391.386C2610.29,211.538 2464.27,65.523 2284.43,65.523ZM2284.43,81.762C2455.31,81.762 2594.05,220.5 2594.05,391.386C2594.05,562.273 2455.31,701.011 2284.43,701.011C2113.54,701.011 1974.8,562.273 1974.8,391.386C1974.8,220.5 2113.54,81.762 2284.43,81.762Z" style="fill:rgb(158,93,17);"/>
            </g>
        </g>
        <g transform="matrix(0.955881,0,0,1.1453,-30.51,-373.545)">
            <path d="M961.222,2257.97C961.222,2257.97 943.908,2220.54 1039.47,2179.97C1142.75,2136.13 1341.41,2168.56 1305.06,2191.14C1079.21,2331.47 975.065,2305.37 961.222,2257.97Z" style="fill:rgb(212,132,39);"/>
            <path d="M945.255,2262.25C942.532,2256.01 927.766,2211.72 1031.89,2167.52C1084.04,2145.38 1159.24,2141.31 1219.19,2146.13C1260.54,2149.45 1294.68,2157.2 1310.15,2165.24C1322.28,2171.54 1326.4,2179.56 1326.17,2186.01C1325.97,2191.34 1323.26,2197.25 1315.05,2202.35C1174.32,2289.79 1078.39,2313.7 1021.62,2309.25C976.573,2305.72 952.563,2285.6 945.255,2262.25ZM961.222,2257.97C961.222,2257.97 943.908,2220.54 1039.47,2179.97C1142.75,2136.13 1341.41,2168.56 1305.06,2191.14C1079.21,2331.47 975.065,2305.37 961.222,2257.97Z" style="fill:rgb(158,93,17);"/>
        </g>
        <g transform="matrix(0.540607,-0.0122945,0.0192941,0.647428,307.706,452.588)">
            <path d="M1155.1,2676.74C1167.9,2604.31 1171.39,2501.36 1204.88,2473.95C1238.36,2446.54 1301.63,2518.53 1356.03,2512.3C1410.43,2506.07 1484.99,2433.2 1520.29,2454.5C1555.58,2475.8 1551.86,2567.42 1567.83,2640.09" style="fill:rgb(212,132,39);stroke:rgb(158,93,17);stroke-width:26.72px;"/>
        </g>
        <g transform="matrix(1.0921,-0.0490764,0.0658187,0.954778,-260.745,210.623)">
            <path d="M1030.12,2104.62C1030.12,2104.62 1114.15,2119.47 1148.03,2115.18C1181.91,2110.9 1233.39,2078.92 1233.39,2078.92" style="fill:none;stroke:rgb(99,66,27);stroke-width:23.09px;"/>
        </g>
        <g transform="matrix(0.928929,0,0,1.66792,80.6023,-1496.82)">
            <path d="M959.225,2249.11C1118.17,2200.1 1114.23,2169.12 1227.82,2155.46C1327.79,2143.45 1327.21,2214.62 1316.54,2214.98C1222.82,2218.16 927.188,2258.98 959.225,2249.11Z" style="fill:rgb(181,110,27);"/>
            <path d="M950.883,2240.71C940.908,2243.79 939.809,2248.02 939.624,2249.59C939.269,2252.59 941.402,2259.85 958.234,2260.22C983.734,2260.78 1232.85,2227.43 1317.59,2224.55C1321.91,2224.41 1326.41,2223.5 1330.34,2221.16C1333.24,2219.44 1337.29,2214.93 1338.18,2208.21C1340.19,2193.19 1330.49,2163.53 1292.54,2150.83C1275.81,2145.23 1253.58,2142.55 1224.18,2146.09C1163.8,2153.34 1134.58,2165.14 1099.41,2181.7C1066.93,2197 1028.91,2216.66 950.883,2240.71ZM959.225,2249.11C1118.17,2200.1 1114.23,2169.12 1227.82,2155.46C1327.79,2143.45 1327.21,2214.62 1316.54,2214.98C1222.82,2218.16 927.188,2258.98 959.225,2249.11Z" style="fill:rgb(158,93,17);"/>
        </g>
    </g>
</svg>
