<?xml version="1.0" encoding="UTF-8" standalone="no"?>
<!DOCTYPE svg PUBLIC "-//W3C//DTD SVG 1.1//EN" "http://www.w3.org/Graphics/SVG/1.1/DTD/svg11.dtd">
<svg width="100%" height="100%" viewBox="0 0 643 643" version="1.1" xmlns="http://www.w3.org/2000/svg" xmlns:xlink="http://www.w3.org/1999/xlink" xml:space="preserve" xmlns:serif="http://www.serif.com/" style="fill-rule:evenodd;clip-rule:evenodd;stroke-linejoin:round;stroke-miterlimit:2;">
    <g transform="matrix(1,0,0,1,-1545.51,-968.511)">
        <g transform="matrix(0.985337,0,0,0.985337,-384.337,903.949)">
            <circle cx="2284.43" cy="391.386" r="309.625"/>
            <path d="M2284.43,65.523C2104.58,65.523 1958.56,211.538 1958.56,391.386C1958.56,571.235 2104.58,717.249 2284.43,717.249C2464.27,717.249 2610.29,571.235 2610.29,391.386C2610.29,211.538 2464.27,65.523 2284.43,65.523ZM2284.43,81.762C2455.31,81.762 2594.05,220.5 2594.05,391.386C2594.05,562.273 2455.31,701.011 2284.43,701.011C2113.54,701.011 1974.8,562.273 1974.8,391.386C1974.8,220.5 2113.54,81.762 2284.43,81.762Z" style="fill:rgb(161,161,161);"/>
        </g>
        <g transform="matrix(0.668985,0,0,0.668985,22.1611,356.579)">
            <g>
                <g transform="matrix(0.92874,0,0,1,848.369,-37.1888)">
                    <path d="M2342.03,1369.75C2342.03,1230.36 2220.18,1117.19 2070.09,1117.19C1920.01,1117.19 1798.15,1230.36 1798.15,1369.75L1798.15,1503.69C1798.15,1643.08 1920.01,1756.25 2070.09,1756.25C2220.18,1756.25 2342.03,1643.08 2342.03,1503.69L2342.03,1369.75Z" style="fill:rgb(187,187,187);"/>
                </g>
                <g transform="matrix(0.256286,0,7.91599e-18,0.158457,2336.92,1186.27)">
                    <path d="M2342.03,1324.66C2342.03,1210.15 2340.98,1042.91 2270.19,1042.91L1913.41,1133.23C1842.62,1133.23 1785.14,1226.19 1785.14,1340.7L1783.29,1501.01C1783.29,1615.51 1840.77,1708.48 1911.56,1708.48L2213.76,1756.25C2284.55,1756.25 2342.03,1663.29 2342.03,1548.79L2342.03,1324.66Z" style="fill:rgb(97,97,97);"/>
                </g>
                <g transform="matrix(-0.256286,0,-7.91599e-18,0.158457,3204.97,1186.27)">
                    <path d="M2342.03,1324.66C2342.03,1210.15 2340.98,1042.91 2270.19,1042.91L1913.41,1133.23C1842.62,1133.23 1785.14,1226.19 1785.14,1340.7L1783.29,1501.01C1783.29,1615.51 1840.77,1708.48 1911.56,1708.48L2213.76,1756.25C2284.55,1756.25 2342.03,1663.29 2342.03,1548.79L2342.03,1324.66Z" style="fill:rgb(97,97,97);"/>
                </g>
                <g transform="matrix(1,0,0,1.03255,756.724,-17.0739)">
                    <path d="M2151.44,1550.16C2151.44,1537.37 2140.71,1526.99 2127.51,1526.99L1900.94,1526.99C1887.73,1526.99 1877.01,1537.37 1877.01,1550.16L1877.01,1596.51C1877.01,1609.3 1887.73,1619.68 1900.94,1619.68L2127.51,1619.68C2140.71,1619.68 2151.44,1609.3 2151.44,1596.51L2151.44,1550.16Z" style="fill:rgb(97,97,97);"/>
                </g>
                <g transform="matrix(0.425978,0,0,0.997531,1912.93,-305.633)">
                    <path d="M2151.44,1550.16C2151.44,1537.37 2127.12,1526.99 2097.17,1526.99L1931.28,1526.99C1901.33,1526.99 1877.01,1537.37 1877.01,1550.16L1877.01,1596.51C1877.01,1609.3 1901.33,1619.68 1931.28,1619.68L2097.17,1619.68C2127.12,1619.68 2151.44,1609.3 2151.44,1596.51L2151.44,1550.16Z" style="fill:white;"/>
                </g>
                <g transform="matrix(1,0,0,1,769.336,44.2068)">
                    <circle cx="1907.01" cy="1369.72" r="23.768" style="fill:rgb(255,19,0);"/>
                </g>
                <g transform="matrix(1,0,0,1,958.546,44.2068)">
                    <circle cx="1907.01" cy="1369.72" r="23.768" style="fill:rgb(255,19,0);"/>
                </g>
                <g transform="matrix(0.766912,0,0,1.00439,1209.53,7.93481)">
                    <path d="M2018.85,1462.19C2028.23,1462.19 2031.41,1472.38 2031.41,1490.69C2031.41,1509 2027.15,1521.87 2014.42,1523.86C2005.16,1525.31 1987.86,1524.86 1997.44,1490.69C2002.38,1473.06 2009.48,1462.19 2018.85,1462.19Z" style="fill:rgb(97,97,97);"/>
                </g>
                <g transform="matrix(-0.766912,0,0,1.00439,4332.37,7.93481)">
                    <path d="M2018.85,1462.19C2028.23,1462.19 2031.41,1472.38 2031.41,1490.69C2031.41,1509 2027.15,1521.87 2014.42,1523.86C2005.16,1525.31 1987.86,1524.86 1997.44,1490.69C2002.38,1473.06 2009.48,1462.19 2018.85,1462.19Z" style="fill:rgb(97,97,97);"/>
                </g>
                <g transform="matrix(0.872728,0,0,0.872728,1012.95,220.852)">
                    <path d="M2011.91,1556.9C2011.91,1553.99 2009.55,1551.62 2006.63,1551.62L1996.07,1551.62C1993.16,1551.62 1990.79,1553.99 1990.79,1556.9L1990.79,1583.88C1990.79,1586.79 1993.16,1589.16 1996.07,1589.16L2006.63,1589.16C2009.55,1589.16 2011.91,1586.79 2011.91,1583.88L2011.91,1556.9Z" style="fill:white;"/>
                </g>
                <g transform="matrix(0.872728,0,0,0.711679,1012.95,508.989)">
                    <path d="M2011.91,1558.1C2011.91,1554.53 2009.55,1551.62 2006.63,1551.62L1996.07,1551.62C1993.16,1551.62 1990.79,1554.53 1990.79,1558.1L1990.79,1582.68C1990.79,1586.26 1993.16,1589.16 1996.07,1589.16L2006.63,1589.16C2009.55,1589.16 2011.91,1586.26 2011.91,1582.68L2011.91,1558.1Z" style="fill:white;"/>
                </g>
                <g transform="matrix(0.872728,0,0,0.872728,1058.39,220.852)">
                    <path d="M2011.91,1556.9C2011.91,1553.99 2009.55,1551.62 2006.63,1551.62L1996.07,1551.62C1993.16,1551.62 1990.79,1553.99 1990.79,1556.9L1990.79,1583.88C1990.79,1586.79 1993.16,1589.16 1996.07,1589.16L2006.63,1589.16C2009.55,1589.16 2011.91,1586.79 2011.91,1583.88L2011.91,1556.9Z" style="fill:white;"/>
                </g>
                <g transform="matrix(0.872728,0,0,0.711679,1058.39,508.989)">
                    <path d="M2011.91,1558.1C2011.91,1554.53 2009.55,1551.62 2006.63,1551.62L1996.07,1551.62C1993.16,1551.62 1990.79,1554.53 1990.79,1558.1L1990.79,1582.68C1990.79,1586.26 1993.16,1589.16 1996.07,1589.16L2006.63,1589.16C2009.55,1589.16 2011.91,1586.26 2011.91,1582.68L2011.91,1558.1Z" style="fill:white;"/>
                </g>
                <g transform="matrix(0.872728,0,0,0.872728,967.514,220.852)">
                    <path d="M2011.91,1556.9C2011.91,1553.99 2009.55,1551.62 2006.63,1551.62L1996.07,1551.62C1993.16,1551.62 1990.79,1553.99 1990.79,1556.9L1990.79,1583.88C1990.79,1586.79 1993.16,1589.16 1996.07,1589.16L2006.63,1589.16C2009.55,1589.16 2011.91,1586.79 2011.91,1583.88L2011.91,1556.9Z" style="fill:white;"/>
                </g>
                <g transform="matrix(0.872728,0,0,0.711679,967.514,508.989)">
                    <path d="M2011.91,1558.1C2011.91,1554.53 2009.55,1551.62 2006.63,1551.62L1996.07,1551.62C1993.16,1551.62 1990.79,1554.53 1990.79,1558.1L1990.79,1582.68C1990.79,1586.26 1993.16,1589.16 1996.07,1589.16L2006.63,1589.16C2009.55,1589.16 2011.91,1586.26 2011.91,1582.68L2011.91,1558.1Z" style="fill:white;"/>
                </g>
                <g transform="matrix(0.872728,0,0,0.872728,922.075,220.852)">
                    <path d="M2011.91,1556.9C2011.91,1553.99 2009.55,1551.62 2006.63,1551.62L1996.07,1551.62C1993.16,1551.62 1990.79,1553.99 1990.79,1556.9L1990.79,1583.88C1990.79,1586.79 1993.16,1589.16 1996.07,1589.16L2006.63,1589.16C2009.55,1589.16 2011.91,1586.79 2011.91,1583.88L2011.91,1556.9Z" style="fill:white;"/>
                </g>
                <g transform="matrix(0.872728,0,0,0.711679,922.075,508.989)">
                    <path d="M2011.91,1558.1C2011.91,1554.53 2009.55,1551.62 2006.63,1551.62L1996.07,1551.62C1993.16,1551.62 1990.79,1554.53 1990.79,1558.1L1990.79,1582.68C1990.79,1586.26 1993.16,1589.16 1996.07,1589.16L2006.63,1589.16C2009.55,1589.16 2011.91,1586.26 2011.91,1582.68L2011.91,1558.1Z" style="fill:white;"/>
                </g>
                <g transform="matrix(0.872728,0,0,0.872728,1103.83,220.852)">
                    <path d="M2011.91,1556.9C2011.91,1553.99 2009.55,1551.62 2006.63,1551.62L1996.07,1551.62C1993.16,1551.62 1990.79,1553.99 1990.79,1556.9L1990.79,1583.88C1990.79,1586.79 1993.16,1589.16 1996.07,1589.16L2006.63,1589.16C2009.55,1589.16 2011.91,1586.79 2011.91,1583.88L2011.91,1556.9Z" style="fill:white;"/>
                </g>
                <g transform="matrix(0.872728,0,0,0.711679,1103.83,508.989)">
                    <path d="M2011.91,1558.1C2011.91,1554.53 2009.55,1551.62 2006.63,1551.62L1996.07,1551.62C1993.16,1551.62 1990.79,1554.53 1990.79,1558.1L1990.79,1582.68C1990.79,1586.26 1993.16,1589.16 1996.07,1589.16L2006.63,1589.16C2009.55,1589.16 2011.91,1586.26 2011.91,1582.68L2011.91,1558.1Z" style="fill:white;"/>
                </g>
                <g transform="matrix(0.872728,0,0,0.872728,1035.67,220.852)">
                    <path d="M2011.91,1556.9C2011.91,1553.99 2009.55,1551.62 2006.63,1551.62L1996.07,1551.62C1993.16,1551.62 1990.79,1553.99 1990.79,1556.9L1990.79,1583.88C1990.79,1586.79 1993.16,1589.16 1996.07,1589.16L2006.63,1589.16C2009.55,1589.16 2011.91,1586.79 2011.91,1583.88L2011.91,1556.9Z" style="fill:white;"/>
                </g>
                <g transform="matrix(0.872728,0,0,0.711679,1035.67,508.989)">
                    <path d="M2011.91,1558.1C2011.91,1554.53 2009.55,1551.62 2006.63,1551.62L1996.07,1551.62C1993.16,1551.62 1990.79,1554.53 1990.79,1558.1L1990.79,1582.68C1990.79,1586.26 1993.16,1589.16 1996.07,1589.16L2006.63,1589.16C2009.55,1589.16 2011.91,1586.26 2011.91,1582.68L2011.91,1558.1Z" style="fill:white;"/>
                </g>
                <g transform="matrix(0.872728,0,0,0.872728,1081.11,220.852)">
                    <path d="M2011.91,1556.9C2011.91,1553.99 2009.55,1551.62 2006.63,1551.62L1996.07,1551.62C1993.16,1551.62 1990.79,1553.99 1990.79,1556.9L1990.79,1583.88C1990.79,1586.79 1993.16,1589.16 1996.07,1589.16L2006.63,1589.16C2009.55,1589.16 2011.91,1586.79 2011.91,1583.88L2011.91,1556.9Z" style="fill:white;"/>
                </g>
                <g transform="matrix(0.872728,0,0,0.711679,1081.11,508.989)">
                    <path d="M2011.91,1558.1C2011.91,1554.53 2009.55,1551.62 2006.63,1551.62L1996.07,1551.62C1993.16,1551.62 1990.79,1554.53 1990.79,1558.1L1990.79,1582.68C1990.79,1586.26 1993.16,1589.16 1996.07,1589.16L2006.63,1589.16C2009.55,1589.16 2011.91,1586.26 2011.91,1582.68L2011.91,1558.1Z" style="fill:white;"/>
                </g>
                <g transform="matrix(0.872728,0,0,0.872728,990.233,220.852)">
                    <path d="M2011.91,1556.9C2011.91,1553.99 2009.55,1551.62 2006.63,1551.62L1996.07,1551.62C1993.16,1551.62 1990.79,1553.99 1990.79,1556.9L1990.79,1583.88C1990.79,1586.79 1993.16,1589.16 1996.07,1589.16L2006.63,1589.16C2009.55,1589.16 2011.91,1586.79 2011.91,1583.88L2011.91,1556.9Z" style="fill:white;"/>
                </g>
                <g transform="matrix(0.872728,0,0,0.711679,990.233,508.989)">
                    <path d="M2011.91,1558.1C2011.91,1554.53 2009.55,1551.62 2006.63,1551.62L1996.07,1551.62C1993.16,1551.62 1990.79,1554.53 1990.79,1558.1L1990.79,1582.68C1990.79,1586.26 1993.16,1589.16 1996.07,1589.16L2006.63,1589.16C2009.55,1589.16 2011.91,1586.26 2011.91,1582.68L2011.91,1558.1Z" style="fill:white;"/>
                </g>
                <g transform="matrix(0.872728,0,0,0.872728,944.795,220.852)">
                    <path d="M2011.91,1556.9C2011.91,1553.99 2009.55,1551.62 2006.63,1551.62L1996.07,1551.62C1993.16,1551.62 1990.79,1553.99 1990.79,1556.9L1990.79,1583.88C1990.79,1586.79 1993.16,1589.16 1996.07,1589.16L2006.63,1589.16C2009.55,1589.16 2011.91,1586.79 2011.91,1583.88L2011.91,1556.9Z" style="fill:white;"/>
                </g>
                <g transform="matrix(0.872728,0,0,0.711679,944.795,508.989)">
                    <path d="M2011.91,1558.1C2011.91,1554.53 2009.55,1551.62 2006.63,1551.62L1996.07,1551.62C1993.16,1551.62 1990.79,1554.53 1990.79,1558.1L1990.79,1582.68C1990.79,1586.26 1993.16,1589.16 1996.07,1589.16L2006.63,1589.16C2009.55,1589.16 2011.91,1586.26 2011.91,1582.68L2011.91,1558.1Z" style="fill:white;"/>
                </g>
                <g transform="matrix(0.872728,0,0,0.872728,1126.55,220.852)">
                    <path d="M2011.91,1556.9C2011.91,1553.99 2009.55,1551.62 2006.63,1551.62L1996.07,1551.62C1993.16,1551.62 1990.79,1553.99 1990.79,1556.9L1990.79,1583.88C1990.79,1586.79 1993.16,1589.16 1996.07,1589.16L2006.63,1589.16C2009.55,1589.16 2011.91,1586.79 2011.91,1583.88L2011.91,1556.9Z" style="fill:white;"/>
                </g>
                <g transform="matrix(0.872728,0,0,0.711679,1126.55,508.989)">
                    <path d="M2011.91,1558.1C2011.91,1554.53 2009.55,1551.62 2006.63,1551.62L1996.07,1551.62C1993.16,1551.62 1990.79,1554.53 1990.79,1558.1L1990.79,1582.68C1990.79,1586.26 1993.16,1589.16 1996.07,1589.16L2006.63,1589.16C2009.55,1589.16 2011.91,1586.26 2011.91,1582.68L2011.91,1558.1Z" style="fill:white;"/>
                </g>
            </g>
            <g transform="matrix(0.97207,0,0,1,225.6,0)">
                <path d="M2618.48,1718.96C2616.07,1719.03 2613.65,1719.06 2611.23,1719.06C2471.83,1719.06 2358.66,1605.89 2358.66,1466.5L2358.66,1332.56C2358.66,1193.17 2471.83,1080 2611.23,1080C2613.65,1080 2616.07,1080.03 2618.48,1080.1L2618.48,1718.96Z" style="fill:rgb(255,236,197);"/>
            </g>
            <g transform="matrix(0.800807,0,0,0.801385,655.979,301.671)">
                <path d="M2611.23,1349.43C2611.23,1327.7 2593.57,1310.05 2571.82,1310.05L2440.58,1310.05C2418.83,1310.05 2401.18,1327.7 2401.18,1349.43L2401.18,1428.18C2401.18,1449.91 2418.83,1467.56 2440.58,1467.56L2571.82,1467.56C2593.57,1467.56 2611.23,1449.91 2611.23,1428.18L2611.23,1349.43Z"/>
            </g>
            <g transform="matrix(1,0,0,0.744647,152.465,355.099)">
                <path d="M2618.48,973.483L2618.48,1222.98C2598.65,1209.92 2581.34,1198.75 2574.7,1195.06C2544.03,1177.99 2488.48,1238.13 2488.48,1238.13L2476.42,1193.67C2427.86,1235.73 2429.12,1263.82 2429.12,1263.82L2400.21,1228.07C2400.21,1228.07 2393.74,1231.24 2380.83,1248.21C2359.2,1276.63 2364.52,1283.44 2364.52,1283.44C2364.52,1283.44 2337.71,1264.13 2351.3,1184.13C2353.29,1172.43 2362.14,1149.71 2358.66,1133.17C2355.43,1117.79 2338.14,1106.66 2338.14,1106.66C2342.82,1096.72 2385.07,1093.85 2385.07,1093.85L2358.66,1066.19C2371.62,1051.86 2419.22,1054.03 2419.22,1054.03C2419.22,1054.03 2416.44,1040.14 2405.55,1033.57C2397.08,1028.47 2375.9,1016.25 2375.9,1016.25C2375.9,1016.25 2388.65,993.147 2442.5,1004.71C2447.88,1005.86 2468.5,1010.74 2468.5,1010.74C2468.5,1010.74 2465.83,1002.76 2459.41,993.937C2453.12,985.288 2439.86,973.483 2439.86,973.483C2439.86,973.483 2550.42,949.444 2618.48,973.483Z" style="fill:rgb(99,55,42);"/>
            </g>
            <g transform="matrix(1,0,0,1,762.544,-2.64472)">
                <path d="M2008.4,1375.05C2008.4,1375.05 1999.45,1374.12 1987.74,1377.31C1976.16,1380.47 1969.75,1387.85 1969.75,1387.85L1969.75,1401.45L1980.39,1408.36C1980.39,1408.36 1985.01,1398.39 1994.32,1395.08C2000.11,1393.02 2008.4,1392.23 2008.4,1392.23L2008.4,1375.05Z"/>
            </g>
        </g>
    </g>
</svg>
