<?xml version="1.0" encoding="UTF-8" standalone="no"?><!DOCTYPE svg PUBLIC "-//W3C//DTD SVG 1.1//EN" "http://www.w3.org/Graphics/SVG/1.1/DTD/svg11.dtd"><svg width="100%" height="100%" viewBox="0 0 181 181" version="1.1" xmlns="http://www.w3.org/2000/svg" xmlns:xlink="http://www.w3.org/1999/xlink" xml:space="preserve" xmlns:serif="http://www.serif.com/" style="fill-rule:evenodd;clip-rule:evenodd;stroke-linejoin:round;stroke-miterlimit:2;"><circle cx="90.137" cy="90.137" r="90.137" style="fill:#a14034;fill-opacity:0.75;"/><g><path d="M62.371,51.898c-1.782,0 -3.43,0.949 -4.324,2.491c-3.676,6.339 -13.28,22.9 -15.911,27.436c-0.442,0.763 -0.675,1.628 -0.675,2.509c0,3.684 0,14.081 0,20.36c0,2.761 2.239,5 5,5l35.86,0l0,23.055c0,1.326 0.527,2.598 1.464,3.536c0.522,0.521 1.139,1.138 1.774,1.773c1.035,1.035 2.471,1.564 3.929,1.449c1.459,-0.115 2.794,-0.864 3.654,-2.048c5.511,-7.595 16.026,-22.086 19.234,-26.508c0.62,-0.854 0.953,-1.882 0.953,-2.936c0,-7.484 0,-38.817 0,-51.133c0,-1.326 -0.527,-2.598 -1.465,-3.536c-0.938,-0.938 -2.21,-1.464 -3.536,-1.464c-11.048,0.004 -37.239,0.013 -45.957,0.016Z" style="fill:#fff;"/><path d="M136.813,56.882c0,-2.759 -2.24,-5 -5,-5l-5.387,0c-2.759,0 -5,2.241 -5,5l0,47.812c0,2.76 2.241,5 5,5l5.387,0c2.76,0 5,-2.24 5,-5l0,-47.812Z" style="fill:#fff;"/></g></svg>