<?xml version="1.0" encoding="UTF-8" standalone="no"?><!DOCTYPE svg PUBLIC "-//W3C//DTD SVG 1.1//EN" "http://www.w3.org/Graphics/SVG/1.1/DTD/svg11.dtd"><svg width="100%" height="100%" viewBox="0 0 181 181" version="1.1" xmlns="http://www.w3.org/2000/svg" xmlns:xlink="http://www.w3.org/1999/xlink" xml:space="preserve" xmlns:serif="http://www.serif.com/" style="fill-rule:evenodd;clip-rule:evenodd;stroke-linejoin:round;stroke-miterlimit:2;"><circle cx="90.137" cy="90.137" r="90.137" style="fill:#1c8dbd;"/><g><path d="M117.903,128.377c1.782,-0.001 3.43,-0.95 4.324,-2.492c3.676,-6.338 13.28,-22.9 15.911,-27.436c0.442,-0.762 0.675,-1.628 0.675,-2.509c0,-3.684 0,-14.081 0,-20.36c0,-2.761 -2.239,-5 -5,-5l-35.86,0l0,-23.055c0,-1.326 -0.527,-2.598 -1.464,-3.535c-0.522,-0.522 -1.139,-1.139 -1.774,-1.774c-1.035,-1.035 -2.471,-1.564 -3.929,-1.449c-1.459,0.115 -2.794,0.864 -3.653,2.048c-5.512,7.595 -16.027,22.086 -19.235,26.508c-0.619,0.854 -0.953,1.882 -0.953,2.937c0,7.483 0,38.816 0,51.132c0,1.327 0.527,2.599 1.465,3.536c0.938,0.938 2.21,1.465 3.537,1.464c11.047,-0.004 37.238,-0.012 45.956,-0.015Z" style="fill:#fff;"/><path d="M43.461,123.392c0,2.759 2.24,5 5,5l5.387,0c2.76,0 5,-2.241 5,-5l0,-47.812c0,-2.76 -2.24,-5 -5,-5l-5.387,0c-2.76,0 -5,2.24 -5,5l0,47.812Z" style="fill:#fff;"/></g></svg>