<?xml version="1.0" encoding="UTF-8" standalone="no"?><!DOCTYPE svg PUBLIC "-//W3C//DTD SVG 1.1//EN" "http://www.w3.org/Graphics/SVG/1.1/DTD/svg11.dtd"><svg width="100%" height="100%" viewBox="0 0 677 197" version="1.1" xmlns="http://www.w3.org/2000/svg" xmlns:xlink="http://www.w3.org/1999/xlink" xml:space="preserve" xmlns:serif="http://www.serif.com/" style="fill-rule:evenodd;clip-rule:evenodd;stroke-linejoin:round;stroke-miterlimit:2;"><path d="M152.253,68.782l-26.689,99.233l-27.943,0l-21.315,-72.185l-21.853,72.185l-27.943,0l-26.51,-99.233l25.256,0l16.121,76.664l22.032,-76.664l26.689,0l22.211,76.664l16.3,-76.664l23.644,0Z" style="fill:#fff;fill-rule:nonzero;"/><path d="M216.228,67.349c11.464,0 20.599,3.762 27.406,11.285c6.806,7.523 10.21,18.091 10.21,31.705l0,57.676l-25.077,0l0,-54.811c0,-7.881 -2.03,-14.001 -6.09,-18.359c-4.06,-4.359 -9.613,-6.538 -16.659,-6.538c-7.164,0 -12.896,2.328 -17.195,6.985c-4.299,4.658 -6.449,11.345 -6.449,20.062l0,52.661l-25.256,0l0,-132.549l25.256,0l0,53.199c2.628,-6.687 6.956,-11.912 12.987,-15.673c6.03,-3.762 12.986,-5.643 20.867,-5.643Z" style="fill:#fff;fill-rule:nonzero;"/><path d="M303.711,67.529c8.359,0 15.524,1.97 21.494,5.911c5.971,3.94 10.21,9.254 12.718,15.941l0,-20.599l25.077,0l0,99.233l-25.077,0l0,-20.778c-2.508,6.688 -6.747,12.031 -12.718,16.032c-5.97,4 -13.135,6 -21.494,6c-8.359,0 -15.882,-2.03 -22.569,-6.09c-6.688,-4.06 -11.912,-9.941 -15.673,-17.643c-3.762,-7.702 -5.643,-16.748 -5.643,-27.137c0,-10.389 1.881,-19.435 5.643,-27.137c3.761,-7.702 8.985,-13.583 15.673,-17.643c6.687,-4.06 14.21,-6.09 22.569,-6.09Zm7.881,22.031c-7.881,0 -14.21,2.568 -18.987,7.703c-4.776,5.134 -7.164,12.18 -7.164,21.136c0,8.956 2.388,15.972 7.164,21.047c4.777,5.075 11.106,7.612 18.987,7.612c7.643,0 13.942,-2.597 18.897,-7.791c4.956,-5.195 7.434,-12.151 7.434,-20.868c0,-8.837 -2.478,-15.852 -7.434,-21.047c-4.955,-5.194 -11.254,-7.792 -18.897,-7.792Z" style="fill:#fff;fill-rule:nonzero;"/><path d="M428.813,146.342l0,21.673l-13.255,0c-11.105,0 -19.613,-2.686 -25.524,-8.06c-5.911,-5.374 -8.867,-14.33 -8.867,-26.868l0,-42.989l-13.792,0l0,-21.316l13.792,0l0,-24.539l25.256,0l0,24.539l22.211,0l0,21.316l-22.211,0l0,43.347c0,4.777 0.956,8.12 2.866,10.031c1.911,1.911 5.135,2.866 9.673,2.866l9.851,0Z" style="fill:#fff;fill-rule:nonzero;"/><path d="M490.427,0l-49.617,196.854l-7.881,0l49.258,-196.854l8.24,0Z" style="fill:#fff;fill-rule:nonzero;"/><path d="M525.178,67.529c12.777,0 23.435,3.463 31.973,10.389c8.538,6.926 13.882,16.359 16.031,28.301l-26.689,0c-1.074,-5.254 -3.522,-9.404 -7.344,-12.449c-3.821,-3.045 -8.657,-4.568 -14.508,-4.568c-6.687,0 -12.27,2.478 -16.748,7.434c-4.478,4.955 -6.717,12.21 -6.717,21.763c0,9.553 2.239,16.807 6.717,21.763c4.478,4.956 10.061,7.434 16.748,7.434c5.851,0 10.687,-1.523 14.508,-4.568c3.822,-3.045 6.27,-7.195 7.344,-12.449l26.689,0c-2.149,11.942 -7.493,21.375 -16.031,28.301c-8.538,6.926 -19.196,10.389 -31.973,10.389c-9.672,0 -18.27,-2.06 -25.793,-6.179c-7.523,-4.12 -13.375,-10.001 -17.554,-17.644c-4.18,-7.642 -6.269,-16.658 -6.269,-27.047c0,-10.389 2.089,-19.435 6.269,-27.137c4.179,-7.702 10.031,-13.583 17.554,-17.643c7.523,-4.06 16.121,-6.09 25.793,-6.09Z" style="fill:#fff;fill-rule:nonzero;"/><path d="M638.529,67.349c11.463,0 20.599,3.762 27.405,11.285c6.807,7.523 10.21,18.091 10.21,31.705l0,57.676l-25.077,0l0,-54.811c0,-7.881 -2.03,-14.001 -6.09,-18.359c-4.06,-4.359 -9.613,-6.538 -16.658,-6.538c-7.165,0 -12.897,2.328 -17.196,6.985c-4.299,4.658 -6.448,11.345 -6.448,20.062l0,52.661l-25.256,0l0,-132.549l25.256,0l0,53.199c2.627,-6.687 6.956,-11.912 12.986,-15.673c6.03,-3.762 12.986,-5.643 20.868,-5.643Z" style="fill:#fff;fill-rule:nonzero;"/></svg>