<?xml version="1.0" encoding="UTF-8" standalone="no"?><!DOCTYPE svg PUBLIC "-//W3C//DTD SVG 1.1//EN" "http://www.w3.org/Graphics/SVG/1.1/DTD/svg11.dtd"><svg width="100%" height="100%" viewBox="0 0 181 181" version="1.1" xmlns="http://www.w3.org/2000/svg" xmlns:xlink="http://www.w3.org/1999/xlink" xml:space="preserve" xmlns:serif="http://www.serif.com/" style="fill-rule:evenodd;clip-rule:evenodd;stroke-linejoin:round;stroke-miterlimit:2;"><g><g><circle cx="90.137" cy="90.137" r="90.137" style="fill:#fff;fill-opacity:0.16;"/></g><path d="M120.106,75.944c3.289,0 5.958,2.67 5.958,5.958l0,11.916c0,3.288 -2.669,5.958 -5.958,5.958l-72.24,0c-3.288,0 -5.958,-2.67 -5.958,-5.958l0,-11.916c0,-3.288 2.67,-5.958 5.958,-5.958l72.24,0Z" style="fill:#fff;"/><path d="M135.446,85.734c2.326,2.326 2.326,6.101 0,8.426l-8.425,8.426c-2.326,2.325 -6.101,2.325 -8.426,0l-36.432,-36.432c-2.325,-2.325 -2.325,-6.101 0,-8.426l8.426,-8.426c2.325,-2.325 6.1,-2.325 8.425,0l36.432,36.432Z" style="fill:#fff;"/><path d="M118.595,77.688c2.325,-2.325 6.1,-2.325 8.426,0l8.425,8.426c2.326,2.325 2.326,6.101 0,8.426l-36.432,36.432c-2.325,2.325 -6.1,2.325 -8.425,0l-8.426,-8.426c-2.325,-2.325 -2.325,-6.101 0,-8.426l36.432,-36.432Z" style="fill:#fff;"/></g></svg>