<?xml version="1.0" encoding="UTF-8" standalone="no"?><!DOCTYPE svg PUBLIC "-//W3C//DTD SVG 1.1//EN" "http://www.w3.org/Graphics/SVG/1.1/DTD/svg11.dtd"><svg width="100%" height="100%" viewBox="0 0 181 181" version="1.1" xmlns="http://www.w3.org/2000/svg" xmlns:xlink="http://www.w3.org/1999/xlink" xml:space="preserve" xmlns:serif="http://www.serif.com/" style="fill-rule:evenodd;clip-rule:evenodd;stroke-linecap:round;stroke-linejoin:round;stroke-miterlimit:1.5;"><g><circle cx="90.137" cy="90.137" r="90.137" style="fill:#fff;fill-opacity:0.16;"/><path d="M91.373,136.1c25.385,0 45.964,-20.578 45.964,-45.963c0,-25.368 -20.596,-45.963 -45.964,-45.963c-25.384,0 -45.963,20.578 -45.963,45.963" style="fill:none;stroke:#fff;stroke-width:16px;"/><path d="M47.752,103.887c-0.702,0.827 -1.749,1.282 -2.833,1.231c-1.084,-0.05 -2.083,-0.601 -2.706,-1.49c-2.817,-4.025 -7.349,-10.499 -10.643,-15.205c-0.765,-1.094 -0.842,-2.528 -0.198,-3.698c0.644,-1.17 1.897,-1.871 3.231,-1.809c6.524,0.305 16.133,0.753 22.657,1.058c1.334,0.062 2.516,0.878 3.048,2.102c0.533,1.225 0.322,2.646 -0.542,3.664c-3.718,4.378 -8.833,10.402 -12.014,14.147Z" style="fill:#fff;"/><path d="M89.898,69.063l0,25.954l17.737,-0.011" style="fill:none;stroke:#fff;stroke-width:10px;"/></g></svg>